<svg version="1.1" id="Layer_1" xmlns="http://www.w3.org/2000/svg" xmlns:xlink="http://www.w3.org/1999/xlink" x="0px" y="0px"
	 width="100%" viewBox="0 0 640 727" enable-background="new 0 0 640 727" xml:space="preserve">
<path fill="#020202" opacity="1.000000" stroke="none" 
	d="
M641.000000,282.000000 
	C641.000000,431.000000 641.000000,579.500000 641.000000,728.000000 
	C427.666687,728.000000 214.333374,728.000000 1.000049,728.000000 
	C1.000032,485.666718 1.000032,243.333405 1.000016,1.000081 
	C214.333298,1.000054 427.666595,1.000054 640.999939,1.000027 
	C641.000000,94.500000 641.000000,188.000000 641.000000,282.000000 
M576.351318,607.927002 
	C575.252380,607.283386 574.153442,606.639709 572.993347,605.242737 
	C574.380066,601.493408 575.766785,597.744141 577.597900,592.793152 
	C574.834351,594.448120 573.448792,595.277893 572.102539,596.175720 
	C572.102539,596.175720 572.130554,596.249207 571.417664,595.648987 
	C573.007751,589.283081 575.155090,582.994507 576.052307,576.532410 
	C577.276978,567.711792 577.549500,558.758850 578.230225,549.862671 
	C577.695435,549.778076 577.160583,549.693481 576.625793,549.608887 
	C574.101868,553.256531 571.902344,557.195801 568.960632,560.467834 
	C566.153259,563.590454 564.606689,568.513550 559.246155,569.194885 
	C568.415283,549.767395 576.310791,530.554321 576.681030,508.935760 
	C583.879211,516.550354 586.971619,526.009949 590.576416,535.274292 
	C594.864380,521.625000 594.008911,507.944427 593.902344,493.866730 
	C596.538025,497.211304 599.173767,500.555847 602.343384,504.577972 
	C603.303711,480.688202 589.427673,463.867340 577.867310,446.115448 
	C578.297302,445.874481 578.727295,445.633514 579.157349,445.392517 
	C582.534058,447.721771 585.910828,450.050995 589.287598,452.380249 
	C589.614563,449.940399 589.455933,447.896759 588.360352,446.742249 
	C580.426941,438.382446 572.892639,429.492615 564.066833,422.176086 
	C556.140259,415.604980 546.557678,411.070465 538.051758,405.141022 
	C534.357788,402.566010 531.826843,398.369659 528.251831,395.567902 
	C519.722046,388.883057 509.871552,388.567749 500.144287,391.882599 
	C495.191223,393.570496 490.893799,397.182251 486.055878,400.070068 
	C482.241302,394.293518 476.945251,389.936554 468.550323,389.899872 
	C460.717743,389.865662 453.702148,391.178436 448.028473,396.940826 
	C443.705505,391.223663 439.661835,385.312744 435.028442,379.907318 
	C430.433136,374.546295 426.362091,368.004486 417.597168,368.975830 
	C407.221771,370.125671 397.215607,379.164185 396.127808,390.352081 
	C395.399780,397.839447 398.149292,404.277374 402.841522,409.261810 
	C404.273560,402.735809 404.716553,396.021729 407.263397,390.233307 
	C410.898132,381.972168 416.956116,381.517822 423.343689,387.779358 
	C428.831940,393.159271 434.427704,398.429474 439.932709,403.792542 
	C440.199341,404.052277 440.049988,404.738953 440.148254,405.819916 
	C428.293091,407.707794 418.185089,413.464935 409.392334,421.363708 
	C399.454742,430.290833 388.786102,443.467133 388.818817,449.065277 
	C391.994232,447.196777 395.148285,445.340820 398.302338,443.484894 
	C390.670532,462.401184 383.776459,480.734222 380.615234,500.933716 
	C384.908600,496.361786 388.617950,492.411743 392.327301,488.461700 
	C390.120361,497.726013 387.094879,506.325470 383.853027,514.842529 
	C377.161957,532.421631 371.275909,550.167664 374.053650,569.385376 
	C375.545135,579.703979 377.597321,589.941528 379.396484,600.215698 
	C379.924164,600.135559 380.451843,600.055420 380.979492,599.975281 
	C380.755157,586.860107 383.299164,574.323181 388.199219,562.244202 
	C388.199219,573.565125 387.424744,584.816162 388.416199,595.909424 
	C389.415710,607.093323 393.257965,617.701050 400.367279,627.763855 
	C401.294220,619.535767 402.134155,612.080078 402.974060,604.624451 
	C405.285736,623.275146 414.056213,644.430725 423.791962,648.796082 
	C423.098816,641.194519 422.392914,633.453003 421.687012,625.711487 
	C422.098755,625.580322 422.510468,625.449158 422.922211,625.317993 
	C427.552612,640.782349 435.561768,654.021179 448.638763,665.514160 
	C447.939941,663.224487 447.634888,662.157837 447.289764,661.104370 
	C441.848175,644.493652 436.236267,627.936401 431.002289,611.260559 
	C425.723541,594.442200 423.039459,577.130981 422.048523,559.538269 
	C421.935974,557.539856 421.081512,555.583191 420.571075,553.607178 
	C418.578857,554.590637 416.190125,555.171753 414.687988,556.652344 
	C412.471008,558.837524 410.884949,561.662842 409.030212,564.215515 
	C408.424866,564.011169 407.819519,563.806885 407.214172,563.602539 
	C410.513702,549.886414 413.813202,536.170288 417.112701,522.454163 
	C416.740143,522.353394 416.367554,522.252686 415.994995,522.151917 
	C413.059570,526.491394 410.124146,530.830872 407.188721,535.170410 
	C406.889404,535.018677 406.590088,534.867004 406.290771,534.715271 
	C407.671600,524.829224 409.052399,514.943176 410.433228,505.057159 
	C410.173889,504.907104 409.914551,504.757050 409.655212,504.606964 
	C405.428864,511.892090 401.202545,519.177185 396.976196,526.462280 
	C396.707672,526.436401 396.439148,526.410522 396.170624,526.384644 
	C400.992371,504.690460 405.814087,482.996246 410.670837,461.144623 
	C407.506866,462.301453 404.158142,463.525848 400.403229,464.898773 
	C406.268524,446.652039 419.216766,423.025330 423.800781,421.637665 
	C416.925690,441.553680 418.203430,461.788452 421.255615,482.079742 
	C421.920197,482.301666 422.584778,482.523560 423.249359,482.745483 
	C430.072235,469.865997 436.895081,456.986511 443.717957,444.107025 
	C442.903015,444.480255 442.088074,444.853455 441.273132,445.226685 
	C440.236633,443.372009 438.889832,441.621124 438.227417,439.641266 
	C436.793427,435.355194 433.680878,434.715240 429.827393,435.073395 
	C428.955780,435.154419 428.044678,434.811035 426.710175,434.589813 
	C427.270355,433.497253 427.436096,432.516479 427.956848,432.261841 
	C432.317871,430.129456 436.830231,428.295288 441.129364,426.050293 
	C446.769287,423.105042 455.240143,424.846130 457.944183,415.988129 
	C457.684601,421.629395 457.185669,427.002014 455.176727,431.733490 
	C451.529877,440.322418 446.863892,448.472565 442.854614,456.915680 
	C439.948120,463.036346 437.414764,469.334198 434.715027,475.553040 
	C435.261627,475.900574 435.808228,476.248108 436.354828,476.595673 
	C437.309296,475.461700 438.141571,474.187103 439.246918,473.226807 
	C440.893585,471.796204 443.049591,469.187286 444.441193,469.501923 
	C457.686707,472.496643 470.707123,472.085876 483.667572,468.190247 
	C485.338745,475.282135 484.334351,481.081696 475.826355,484.561432 
	C474.442780,485.127319 473.134369,485.875610 471.784790,486.526184 
	C466.838776,488.910309 464.404144,492.838745 464.144836,498.330811 
	C463.857208,504.423218 465.401428,509.717194 471.282379,512.309692 
	C478.063232,515.298889 484.967377,518.289368 492.116791,520.098389 
	C504.110229,523.133179 513.566406,515.067139 513.291016,502.594788 
	C513.204773,498.689819 512.340637,494.802032 512.026611,492.394196 
	C520.888855,485.332001 529.121094,478.771851 537.184570,472.346130 
	C539.036072,476.941925 541.363342,485.405792 539.610168,501.496246 
	C550.274231,483.283142 552.465149,463.171234 551.449341,441.562775 
	C562.231262,453.089783 570.335266,496.866882 566.636169,509.397308 
	C564.287476,504.992126 562.003113,500.707489 559.718689,496.422882 
	C559.299500,496.573334 558.880371,496.723785 558.461182,496.874237 
	C559.111694,510.719147 558.329773,524.394775 554.590454,538.298401 
	C553.094910,531.686157 551.760925,525.788147 550.426941,519.890076 
	C547.356689,525.362793 545.408142,530.604553 543.317810,535.789124 
	C537.434387,550.381409 531.261597,564.862061 525.649902,579.557373 
	C521.477295,590.484253 518.092163,601.709717 514.144958,612.726501 
	C513.293213,615.103638 511.535706,617.156250 510.195374,619.358337 
	C509.853363,619.162964 509.511322,618.967590 509.169312,618.772217 
	C509.053589,616.567444 508.937866,614.362671 508.822144,612.157898 
	C505.395752,616.695129 502.916199,621.440918 500.565369,626.249634 
	C494.576721,638.499573 488.386658,650.662170 482.835724,663.108826 
	C480.964142,667.305359 480.772583,672.251282 479.813202,676.854675 
	C480.311554,677.018860 480.809906,677.183044 481.308258,677.347229 
	C501.702271,655.814636 529.718079,642.381226 545.100098,615.522644 
	C545.573669,615.809753 546.047241,616.096924 546.520813,616.384033 
	C542.959167,630.534668 539.397522,644.685364 535.835938,658.835999 
	C548.884705,645.026917 559.960693,629.965576 570.175049,613.893311 
	C570.922546,614.864319 572.224121,615.790710 572.306580,616.815247 
	C572.501343,619.233459 572.115601,621.698425 571.494263,624.291626 
	C571.217651,624.478638 570.990906,624.713745 570.398987,625.275513 
	C570.155579,625.536682 570.052734,625.844849 569.940979,626.973633 
	C567.670532,639.336975 566.023376,651.743896 567.262146,664.428833 
	C568.866028,661.510620 569.778198,658.444336 570.875427,655.445679 
	C573.122803,649.303711 575.469604,643.198059 578.592773,637.026306 
	C579.643921,636.337219 581.695007,635.294983 581.595215,635.012512 
	C580.233459,631.157166 580.806702,628.082581 584.576172,626.361267 
	C582.673218,624.868408 581.049500,623.594543 579.425720,622.320679 
	C581.156799,621.542542 582.887878,620.764404 585.423462,619.624573 
	C582.998962,615.556335 575.941895,614.340454 577.646118,607.921753 
	C577.795166,606.655396 577.944153,605.389038 578.093201,604.122742 
	C577.731506,604.144043 577.369751,604.165405 577.008057,604.186768 
	C577.008057,605.460510 577.008057,606.734253 576.351318,607.927002 
M105.998184,657.953125 
	C106.364555,657.861938 106.730934,657.770813 107.097313,657.679626 
	C106.799866,657.385132 106.502419,657.090576 106.253166,655.973450 
	C102.298325,640.360657 98.343475,624.747864 94.388634,609.135071 
	C94.858406,608.737366 95.328178,608.339600 95.797943,607.941833 
	C96.027481,608.738464 96.066818,609.667908 96.515991,610.311218 
	C100.943466,616.653198 104.965744,623.362427 110.037155,629.148682 
	C116.127769,636.097900 122.897156,642.508789 129.803452,648.669800 
	C136.072235,654.262085 143.010132,659.096741 149.481323,664.472168 
	C154.383347,668.544067 159.015152,672.941223 164.709244,678.036682 
	C161.944748,651.171082 143.522720,632.582153 134.180283,609.899231 
	C134.427490,614.080383 134.674698,618.261536 134.921906,622.442688 
	C134.267120,622.613220 133.612335,622.783813 132.957535,622.954346 
	C120.137131,588.929626 110.689369,553.567688 93.345840,519.668213 
	C91.826401,526.897278 90.552238,532.959290 89.278084,539.021362 
	C86.314369,524.850891 84.243134,510.640411 84.906487,495.747162 
	C82.130478,501.314484 79.354462,506.881805 76.454674,512.697388 
	C74.381828,487.931610 83.895309,448.223480 92.940575,443.398376 
	C95.356697,481.654541 98.722420,492.959595 104.192253,498.782837 
	C104.691765,490.171478 105.234344,480.817566 105.776932,471.463654 
	C106.328400,471.351349 106.879868,471.239044 107.431335,471.126740 
	C108.828049,472.460266 110.148582,473.886292 111.635262,475.110596 
	C116.847954,479.403259 121.844208,484.043243 127.461205,487.731079 
	C131.281158,490.239136 132.611359,492.155762 131.719681,497.121552 
	C129.657516,508.605713 134.144897,522.108093 150.737686,520.141296 
	C158.066620,519.272583 165.283783,516.096252 172.147949,513.055969 
	C178.983826,510.028259 181.394821,503.896851 180.510284,496.533173 
	C179.722092,489.971741 175.264313,486.979797 169.513229,485.166138 
	C167.941864,484.670593 166.400864,483.927490 165.008621,483.042145 
	C159.789856,479.723389 158.763260,471.580688 162.284668,468.564941 
	C176.411514,472.265778 189.912796,472.267700 203.819504,469.367615 
	C209.611404,475.776642 209.611404,475.776642 212.406906,475.214081 
	C207.282104,463.801575 202.414581,452.480713 197.133713,441.356110 
	C193.004700,432.657990 190.583618,423.711182 191.035019,413.988861 
	C192.048523,414.712769 193.053619,415.558746 193.164368,416.509033 
	C193.735962,421.413269 197.469376,422.594360 201.262100,424.012878 
	C207.715500,426.426544 214.068130,429.108490 220.493546,431.599213 
	C221.717865,432.073792 223.083023,432.185120 224.383194,432.464020 
	C223.871323,433.450806 223.359467,434.437592 222.847595,435.424377 
	C213.591446,432.248016 210.679047,439.928955 205.472626,444.447296 
	C212.585617,457.411011 216.990875,471.955170 227.358337,483.971008 
	C227.943451,482.451996 228.551331,481.493134 228.664795,480.478973 
	C229.413239,473.789917 230.354050,467.102234 230.653198,460.388336 
	C230.994766,452.721832 231.216873,444.987305 230.566162,437.361237 
	C230.130020,432.249634 228.084549,427.275330 226.992188,421.375458 
	C226.870728,421.102997 226.749252,420.830536 227.497208,420.607269 
	C228.337494,421.414001 229.310440,422.121674 229.998077,423.042419 
	C239.736404,436.081879 245.241135,451.188232 251.727081,466.727295 
	C247.052460,464.632324 243.168304,462.891632 238.547577,460.820831 
	C245.831360,480.832581 249.547394,500.586426 252.266449,520.551636 
	C251.794098,520.770142 251.321747,520.988647 250.849396,521.207092 
	C247.476501,515.860107 244.103607,510.513092 240.730713,505.166046 
	C240.490036,505.307617 240.249359,505.449158 240.008698,505.590698 
	C241.344299,515.110291 242.679916,524.629944 244.195663,535.433411 
	C240.303635,530.238831 237.357513,526.306763 234.411392,522.374634 
	C235.756226,537.336365 242.901749,550.719788 241.542587,565.626343 
	C238.708374,560.162476 236.001205,554.883423 228.821625,553.429504 
	C228.267792,574.088989 225.210495,593.744324 218.581665,612.587036 
	C212.008102,631.272583 204.379395,649.587036 197.643982,666.954163 
	C209.864487,656.889709 220.260880,643.644531 226.530670,627.231445 
	C226.995819,627.393799 227.460968,627.556091 227.926117,627.718445 
	C227.277847,634.747742 226.629578,641.776978 225.867264,650.042969 
	C232.339325,643.592712 238.131622,638.023682 240.743378,630.125305 
	C243.315369,622.347107 245.533020,614.451721 248.248596,605.475830 
	C248.844238,612.631592 249.360016,618.828125 249.981766,626.297485 
	C265.646576,606.810242 264.420410,585.079468 262.112427,562.985657 
	C267.842499,574.564209 270.832306,586.685791 270.243622,599.708801 
	C277.495270,582.255554 280.428986,564.160950 276.212677,545.837341 
	C273.172089,532.623169 267.887817,519.922058 263.541687,507.013123 
	C261.640869,501.367218 259.583771,495.773926 257.597656,490.156769 
	C258.136932,489.809784 258.676239,489.462799 259.215546,489.115814 
	C262.658569,492.849762 266.101593,496.583710 270.162872,500.988129 
	C267.528900,479.831360 261.342621,460.891449 251.102112,443.255188 
	C251.449600,442.909393 251.797089,442.563599 252.144577,442.217773 
	C255.902191,445.025421 259.659821,447.833069 263.417450,450.640686 
	C252.572083,428.160339 236.151077,412.156982 210.699921,405.342224 
	C218.142426,397.976288 224.783875,391.027924 231.933090,384.648560 
	C233.339325,383.393768 237.435654,383.336761 239.007553,384.484955 
	C241.780151,386.510101 244.453964,389.579285 245.562180,392.769623 
	C247.403839,398.071289 247.974594,403.814423 248.988312,408.907898 
	C259.270142,399.509644 258.458405,381.611023 244.862915,373.107269 
	C234.343048,366.527283 226.818909,367.294525 218.934235,376.297302 
	C213.270874,382.763794 208.515305,390.025299 203.198868,397.140778 
	C197.831131,391.469543 190.651749,389.100250 182.382767,389.570190 
	C173.976074,390.047974 167.436157,393.772034 162.799011,401.394562 
	C161.378143,399.760529 160.558838,398.698608 159.619446,397.756470 
	C149.903656,388.012360 126.468979,386.717010 116.706070,396.408173 
	C108.799812,404.256348 99.471016,409.513428 90.193878,415.204468 
	C76.803055,423.418976 64.830093,433.410675 55.581654,446.313568 
	C54.150688,448.309937 53.030571,450.529114 51.766685,452.645264 
	C52.049591,452.865021 52.332497,453.084778 52.615402,453.304565 
	C57.221809,450.151550 61.828213,446.998535 66.434616,443.845520 
	C66.734543,444.194305 67.034470,444.543091 67.334389,444.891846 
	C54.431797,462.384399 41.139549,479.708496 41.431561,503.672028 
	C44.708443,499.846039 47.537216,496.543213 50.801319,493.755432 
	C50.954643,493.919800 51.107964,494.084167 51.159710,495.086639 
	C50.792854,504.021637 50.002842,512.966553 50.212143,521.888000 
	C50.345375,527.567200 51.961109,533.211487 52.912086,538.871460 
	C55.284748,526.857544 59.931580,516.381653 67.592545,507.112457 
	C67.034187,529.893127 75.574776,550.150208 84.262596,570.370361 
	C83.647003,570.721008 83.031410,571.071716 82.415817,571.422363 
	C75.665901,562.093567 68.915985,552.764771 62.145855,543.408081 
	C62.015831,560.511292 64.313438,577.272034 69.622269,593.912109 
	C65.117249,589.065369 61.626427,583.709167 58.022167,578.430359 
	C57.365417,577.468506 56.245560,576.822876 55.339489,576.031250 
	C54.593906,577.006897 53.249306,577.952820 53.199333,578.962891 
	C52.858711,585.847900 51.373573,593.088440 52.938198,599.567017 
	C55.917095,611.901550 60.524803,623.860962 64.769630,635.865356 
	C67.878288,644.656616 71.487762,653.270813 74.874008,661.963867 
	C77.619087,643.647949 74.846451,625.901123 70.485237,608.056213 
	C79.419685,626.634705 92.415092,642.080017 105.998184,657.953125 
M267.163269,245.136520 
	C267.314484,245.255295 267.465729,245.374069 267.457397,246.233017 
	C262.263031,258.404480 259.799194,271.075012 260.828613,284.305939 
	C261.726715,295.848389 268.144073,305.140015 281.680786,304.978027 
	C292.287292,304.851105 301.667114,301.224487 309.880493,295.093323 
	C323.657715,284.808746 322.783295,271.171936 309.616486,260.234314 
	C305.314819,256.660919 299.278625,255.079468 293.897247,252.934448 
	C290.074066,251.410522 286.921509,249.758698 285.802094,245.266846 
	C283.960632,237.877838 287.052856,232.625595 291.589325,228.379196 
	C294.567902,229.932648 296.927582,231.747055 299.581757,232.450531 
	C314.112213,236.301834 328.965485,237.137772 343.676178,234.421677 
	C349.447815,233.356033 356.752472,234.663132 361.011444,226.678513 
	C363.303284,231.161789 365.797089,234.584518 366.838837,238.403336 
	C368.606537,244.883255 366.650909,249.569733 359.764587,251.903671 
	C354.427460,253.712540 349.185364,256.034363 344.256622,258.769043 
	C332.509460,265.286896 330.075226,282.740723 339.605316,291.868866 
	C348.778809,300.655426 359.631409,305.437225 372.622772,304.952789 
	C380.804962,304.647644 387.406555,300.144348 389.997040,292.418060 
	C393.187195,282.903137 392.844330,273.252228 390.464661,263.708282 
	C388.722046,256.719452 386.287659,249.903061 384.161621,243.009811 
	C386.081940,243.556808 387.186584,244.629639 388.076263,245.858139 
	C391.379761,250.419861 393.920258,251.128571 398.236542,247.557480 
	C401.706665,244.686447 404.557343,241.059692 407.632477,237.721802 
	C408.856476,236.393204 409.944702,234.939514 411.094727,233.542786 
	C411.420105,233.706284 411.745483,233.869766 412.070862,234.033249 
	C412.070862,245.668442 412.070862,257.303650 412.070862,268.768005 
	C426.175201,248.788315 427.565460,225.858719 425.246735,202.076721 
	C426.548523,201.731293 427.760223,201.409775 429.275085,201.007812 
	C428.906464,185.415146 424.016113,171.154602 418.502991,156.921539 
	C433.506195,175.162125 441.365967,197.366867 453.883545,216.922318 
	C453.517883,217.218460 453.152222,217.514587 452.786530,217.810730 
	C447.964172,216.272720 443.141815,214.734711 437.312286,212.875473 
	C440.075409,220.039383 442.490997,225.466660 444.269287,231.095306 
	C447.474823,241.241653 450.298920,251.508514 452.780426,262.332397 
	C452.629883,262.547546 452.479309,262.762726 451.699158,262.630493 
	C448.043243,255.429443 443.136383,249.501801 434.762878,245.787354 
	C436.639313,265.955292 441.027679,285.118073 441.083038,305.894897 
	C437.802368,299.302216 435.169342,294.010956 432.536285,288.719696 
	C431.998199,288.948303 431.460114,289.176910 430.922028,289.405518 
	C434.461029,306.883026 437.492157,324.370514 432.260712,342.060211 
	C432.973907,331.155945 429.099792,322.130798 422.048309,315.126587 
	C419.546539,327.131653 416.988617,339.406219 414.645355,350.650543 
	C420.568695,351.385284 426.503998,352.121490 432.310638,352.841766 
	C435.871613,351.253967 439.825348,349.522522 443.747009,347.721161 
	C444.776947,347.248077 445.696045,346.538513 446.685577,345.971710 
	C450.202026,343.957458 453.767517,342.024445 457.225250,339.914581 
	C458.344055,339.231934 460.032532,338.096771 460.029114,337.173889 
	C459.992310,327.191864 459.884735,317.199127 459.338837,307.234375 
	C459.045715,301.884338 457.865387,296.582916 457.085388,291.259552 
	C457.630280,291.012115 458.175171,290.764709 458.720062,290.517273 
	C466.321350,303.471222 473.922607,316.425171 481.106415,328.667725 
	C484.271698,312.250763 484.241669,294.656921 481.362366,276.834473 
	C490.187378,287.454681 494.514160,300.279053 499.443359,313.056396 
	C500.324646,308.521576 500.250793,304.169983 500.337921,299.821625 
	C500.653717,284.062500 497.734711,269.072601 490.493103,254.926956 
	C487.956573,249.972183 486.032104,244.648773 484.351624,239.328339 
	C482.976501,234.974625 482.869812,230.198639 481.331085,225.922821 
	C478.431396,217.864960 474.905090,210.032562 471.304382,201.293625 
	C480.374268,205.879669 484.735168,214.298019 490.874695,222.076630 
	C491.072144,220.300583 491.503326,219.270248 491.223328,218.497665 
	C488.600464,211.261551 486.681641,203.608734 482.972565,196.961807 
	C475.499329,183.569229 463.761841,173.691742 452.119965,164.144485 
	C441.102844,155.109543 429.141876,147.182861 415.586945,142.182404 
	C410.377197,140.260513 405.050873,138.654755 398.667999,136.536728 
	C413.206207,129.273239 426.528290,122.435883 440.026367,115.965683 
	C445.198730,113.486336 450.518768,114.203819 454.199829,118.929092 
	C457.393890,123.029160 460.414398,127.455460 462.487579,132.186340 
	C464.767700,137.389481 465.877808,143.105392 467.696228,149.271225 
	C472.283447,139.754333 472.277008,130.211548 470.421906,120.835655 
	C467.360229,105.360886 451.802551,93.438354 433.741302,96.143295 
	C421.352295,97.998741 411.077362,103.548897 403.894012,114.032898 
	C401.429260,117.630226 399.474274,121.576874 397.005066,125.850891 
	C392.879059,116.613365 386.652618,110.915344 377.017517,109.748734 
	C365.599152,108.366211 354.238678,108.958092 343.328796,112.628639 
	C335.678650,115.202454 330.862274,121.462090 326.544922,128.500092 
	C325.520233,127.250000 324.816620,126.150917 323.886749,125.298775 
	C319.792664,121.546967 316.054993,117.188896 311.411316,114.298683 
	C301.202118,107.944550 289.458130,108.644913 278.174255,109.537628 
	C272.881531,109.956352 267.424866,112.654366 262.789642,115.525558 
	C259.622559,117.487335 257.747284,121.534607 256.064240,123.671921 
	C251.506561,117.946632 247.543900,111.189049 241.937744,106.326149 
	C232.549484,98.182579 221.694214,93.214272 208.501160,96.831001 
	C185.636169,103.099213 178.830139,128.612732 186.686127,148.648438 
	C187.300980,147.176117 187.802551,146.016800 188.271774,144.844528 
	C190.906708,138.261703 192.765030,131.217209 196.352005,125.203201 
	C201.187561,117.095825 207.919983,110.633636 219.171738,117.509422 
	C222.285904,119.412445 225.547791,121.072777 228.730301,122.865105 
	C236.724930,127.367554 244.712921,131.881805 252.904694,136.504822 
	C244.958054,139.528610 237.053268,141.969711 229.645584,145.464493 
	C209.696487,154.876022 193.273376,169.112747 178.493362,185.161758 
	C171.327637,192.942764 165.696228,202.026382 162.978729,212.531021 
	C162.325989,215.054245 161.859665,217.625732 161.025345,221.478500 
	C167.410629,214.611359 172.670013,208.955093 177.929398,203.298828 
	C178.432602,203.646393 178.935822,203.993958 179.439026,204.341522 
	C178.638779,206.393997 177.758301,208.419296 177.052673,210.503799 
	C174.465546,218.146484 171.097702,225.650620 169.615723,233.507187 
	C168.056793,241.771713 165.413696,249.316574 161.498260,256.686310 
	C158.892517,261.590881 157.080032,266.976196 155.394806,272.299072 
	C150.918915,286.436462 150.810242,300.909088 152.668091,315.109772 
	C155.147079,308.408173 157.356186,301.213470 160.450150,294.421875 
	C163.441910,287.854645 167.345016,281.702515 170.847824,275.368073 
	C171.279282,275.606659 171.710754,275.845245 172.142212,276.083832 
	C168.153275,293.860596 168.215393,318.978210 171.648346,331.384155 
	C173.184723,327.738251 174.264084,324.979614 175.495056,322.290375 
	C180.441513,311.484192 185.944504,301.028168 194.970917,292.975128 
	C195.088547,293.094055 195.206161,293.213013 195.450394,294.116241 
	C191.648590,309.091858 190.181992,324.200531 192.746002,338.222565 
	C197.730530,341.163422 201.983902,343.810577 206.367493,346.220978 
	C210.880905,348.702789 215.506165,350.984375 220.128403,353.260345 
	C220.611588,353.498260 221.407181,353.116486 222.054611,353.003754 
	C227.147156,352.117096 232.238892,351.225983 237.729218,350.266632 
	C235.236649,338.713684 232.628906,326.626923 230.021164,314.540192 
	C229.581818,314.351379 229.142471,314.162567 228.703140,313.973724 
	C225.255676,321.815033 221.808212,329.656311 217.826981,338.711670 
	C217.826981,322.283112 217.826981,307.275482 217.826981,292.096344 
	C216.105560,295.472443 214.386765,298.843414 212.667969,302.214417 
	C212.041336,302.081879 211.414719,301.949341 210.788086,301.816803 
	C212.936050,283.405823 215.084015,264.994812 217.313431,245.885666 
	C207.730392,249.225327 203.562408,256.528534 199.073608,263.485962 
	C198.521423,263.153229 197.969238,262.820496 197.417053,262.487762 
	C202.998138,246.167740 208.579224,229.847702 214.563034,212.350052 
	C208.955307,214.489502 203.829010,216.445282 197.975143,218.678635 
	C209.117783,198.596802 219.937683,179.096573 230.757599,159.596359 
	C231.301910,159.848206 231.846207,160.100067 232.390503,160.351929 
	C231.893692,162.221878 231.395126,164.091385 230.900360,165.961868 
	C228.172165,176.275604 225.401718,186.578674 222.791473,196.922180 
	C222.558945,197.843613 223.061447,199.646667 223.746552,199.987747 
	C227.487991,201.850433 226.651367,205.160034 226.675079,208.191299 
	C226.724625,214.521561 226.571793,220.855530 226.728027,227.182388 
	C227.026047,239.249756 230.117279,250.643295 235.621307,261.355835 
	C236.808716,263.666870 238.552444,265.692108 240.039917,267.848969 
	C239.380051,256.171051 238.881393,245.022797 241.356827,232.819733 
	C243.250656,235.608093 244.309082,237.464417 245.659912,239.075577 
	C247.151520,240.854614 248.908630,242.411453 250.554565,244.060638 
	C257.698303,251.218552 258.702850,251.269943 266.268616,244.890701 
	C266.385315,244.792282 266.582611,244.789459 267.163269,245.136520 
M286.846649,347.341827 
	C287.626465,349.461212 288.406281,351.580566 289.062347,353.363647 
	C291.881958,348.010223 294.574982,342.897125 297.268005,337.784058 
	C297.690979,338.012604 298.113983,338.241180 298.536957,338.469757 
	C299.277374,359.671936 302.978668,369.476654 309.860229,370.917938 
	C310.692596,364.518982 311.535156,358.041565 312.532867,350.371490 
	C317.215820,361.072418 321.214722,370.210114 325.213593,379.347778 
	C325.815369,379.344055 326.417175,379.340302 327.018951,379.336548 
	C331.529205,369.890442 336.039459,360.444336 340.203918,351.722443 
	C342.725647,357.305145 343.419617,364.459625 340.799438,372.993835 
	C352.842987,363.853577 355.713379,352.232391 354.978729,339.049896 
	C355.548431,339.013458 356.118103,338.977051 356.687805,338.940613 
	C358.933777,343.879395 361.179718,348.818176 363.434601,353.776550 
	C367.071716,345.485382 369.085999,336.948578 362.898743,328.684662 
	C356.251709,319.806671 347.124817,313.946320 336.943085,310.178528 
	C332.503906,308.535736 327.198761,308.662262 322.326782,308.879700 
	C312.437988,309.320984 304.636688,315.035126 296.970245,320.461639 
	C287.450195,327.200226 283.794159,337.241791 286.846649,347.341827 
M346.247040,56.870388 
	C347.338287,53.324718 348.429504,49.779049 349.487732,46.340618 
	C338.867889,41.679890 331.886505,47.473721 327.021301,57.731846 
	C318.432556,44.574123 310.811859,41.399803 303.613586,46.687412 
	C304.988068,50.313343 306.290863,53.750160 307.593658,57.186981 
	C296.958862,53.162487 287.452209,53.505531 277.811707,57.792469 
	C278.058746,58.377125 278.139435,58.900902 278.437439,59.224602 
	C285.221313,66.593307 292.840637,73.359627 298.621063,81.442024 
	C305.429901,90.962372 313.569244,98.380829 323.841827,103.636978 
	C325.104523,104.283066 327.119446,104.896042 328.147491,104.341377 
	C338.368103,98.827042 347.355011,92.111862 353.958649,82.039436 
	C359.685852,73.303902 367.022369,65.623489 373.635986,57.491058 
	C366.596252,54.847607 358.405853,52.794510 349.807465,56.748177 
	C348.906799,57.162304 347.828949,57.191067 346.247040,56.870388 
M348.003571,520.452209 
	C351.066925,513.622131 354.409912,506.899506 357.091675,499.922729 
	C358.775696,495.541809 359.789703,490.831421 360.541046,486.177917 
	C362.486511,474.129333 364.119873,462.030334 365.877869,449.951477 
	C351.647644,480.324188 337.563782,502.669250 326.412872,510.712341 
	C309.434296,494.524902 298.243042,474.609589 288.902710,451.764252 
	C288.902710,455.539368 288.574493,457.873932 288.958344,460.084839 
	C290.830780,470.869324 293.239502,481.570404 294.814331,492.394714 
	C297.772919,512.729675 309.519379,527.927124 323.152771,542.051758 
	C324.079926,543.012268 326.908783,543.149292 328.243958,542.470703 
	C330.335846,541.407593 332.074921,539.467102 333.668518,537.640930 
	C338.419830,532.196045 343.027588,526.625916 348.003571,520.452209 
M201.840225,526.584106 
	C196.851761,524.499451 191.790176,520.514404 186.889130,520.702881 
	C174.472031,521.180603 163.702896,526.674500 155.494247,536.364075 
	C152.542313,539.848633 153.393372,543.238098 156.717239,546.966919 
	C157.953400,544.637451 159.057739,542.556335 160.162079,540.475281 
	C160.637360,541.028564 161.112625,541.581787 161.587891,542.135010 
	C163.053253,546.774597 164.518616,551.414124 166.386169,557.327087 
	C167.828827,554.332031 168.694214,552.535339 170.021042,549.780762 
	C172.159348,555.083496 173.957108,559.541626 176.380936,565.552368 
	C180.792236,559.076843 184.483521,553.658264 189.199493,546.735535 
	C190.119003,552.932129 190.860123,557.926514 191.681091,563.458984 
	C200.694901,558.285767 204.462479,550.176086 205.076599,539.310120 
	C207.266678,541.957581 208.727585,543.723633 210.470535,545.830566 
	C211.525513,537.460571 208.134644,531.705627 201.840225,526.584106 
M446.793945,555.690063 
	C449.538818,558.782410 452.283691,561.874817 454.763580,564.668640 
	C455.716492,558.665955 456.568085,553.301636 457.560883,547.047607 
	C462.880310,553.934875 467.228455,559.564697 471.576630,565.194458 
	C472.219727,565.091858 472.862823,564.989319 473.505951,564.886780 
	C477.018127,557.377747 480.530334,549.868774 484.192657,542.038757 
	C485.337555,543.532593 486.769165,545.400513 488.203308,547.258789 
	C492.115051,544.424683 493.243866,540.266357 490.537964,536.309326 
	C488.822174,533.800171 486.558105,531.324829 483.969208,529.808960 
	C466.671478,519.680481 459.504578,516.507446 444.687622,527.147827 
	C438.176056,531.824036 436.167999,538.145813 436.071320,546.184509 
	C438.078735,543.773926 439.673676,541.858582 440.825500,540.475464 
	C442.735870,545.465027 444.571899,550.260376 446.793945,555.690063 
M247.669312,63.021973 
	C244.551849,64.404884 241.434387,65.787796 238.464981,67.105034 
	C244.113266,69.307571 249.570770,71.435707 255.028290,73.563843 
	C254.891357,74.033592 254.754440,74.503334 254.617523,74.973083 
	C250.158905,75.684868 245.601471,76.032883 241.269241,77.209862 
	C236.860168,78.407707 232.672867,80.421844 228.388458,82.078552 
	C237.748306,86.122665 246.627426,88.775215 255.256363,92.080856 
	C266.498688,96.387650 278.010040,99.213875 289.997314,100.189697 
	C294.361847,100.544975 295.628540,99.288956 293.841766,95.287819 
	C290.921997,88.749458 288.220215,81.919373 284.112640,76.147354 
	C276.218384,65.054291 262.803284,57.032269 247.669312,63.021973 
M402.028046,76.114037 
	C400.522705,75.675674 399.017334,75.237312 395.934967,74.339722 
	C402.396973,71.458115 407.633148,69.123146 413.543488,66.487526 
	C410.852783,65.270599 408.983948,64.371269 407.073456,63.571480 
	C401.343231,61.172699 395.288208,59.899406 389.283417,61.521290 
	C373.545349,65.772118 360.550781,84.143143 358.708801,100.196083 
	C370.454620,99.387711 381.839661,98.354362 392.928009,93.970993 
	C403.666901,89.725754 414.852539,86.610611 426.062988,82.926491 
	C419.145691,77.926033 411.332245,75.996979 402.028046,76.114037 
M186.940308,356.181793 
	C182.562622,355.611176 178.184921,355.040558 174.781845,354.596985 
	C173.652420,352.456970 173.166885,349.873352 171.861618,349.355347 
	C166.562653,347.252472 164.153625,351.755188 161.266983,355.238190 
	C156.701126,349.918793 152.038239,345.365814 144.046844,347.500488 
	C144.724655,349.285034 145.344772,350.917725 146.105942,352.921722 
	C137.515549,351.771210 129.155228,350.653778 120.275314,355.247864 
	C129.690567,357.063293 135.528748,362.705322 141.417892,368.474365 
	C146.349274,373.305145 151.812744,377.590424 156.997543,382.166046 
	C159.199463,384.109253 161.212708,384.222351 163.380920,382.099792 
	C166.148254,379.390778 169.064987,376.834595 171.838638,374.131775 
	C177.165070,368.941437 180.287140,361.441833 187.976990,358.677551 
	C188.091782,358.636261 187.751297,357.328461 186.940308,356.181793 
M500.225708,376.699341 
	C509.202789,369.052246 518.179871,361.405121 527.129089,353.781799 
	C520.539673,350.488342 512.610962,352.095215 504.611969,352.636047 
	C505.609131,351.300415 506.543182,350.049286 507.581543,348.658508 
	C498.898071,343.453217 494.719940,350.616669 490.920410,353.832153 
	C486.627319,351.949188 483.435089,350.173492 480.014282,349.365753 
	C479.330231,349.204224 477.774536,352.734314 476.782379,354.306122 
	C472.099091,355.296997 467.195190,356.334564 461.430603,357.554230 
	C464.551605,359.344025 466.726807,360.036835 468.105011,361.487061 
	C472.049713,365.637878 475.998138,369.858887 479.350403,374.483398 
	C486.025696,383.691925 491.981689,384.645416 500.225708,376.699341 
M548.807678,382.243713 
	C543.590210,387.653778 537.291382,392.209076 534.461487,400.758850 
	C537.388306,401.189178 540.219910,402.366150 542.629578,401.787262 
	C546.556702,400.843781 550.251404,398.846283 553.965027,397.123108 
	C558.122559,395.193909 561.997620,392.266876 566.343811,391.221344 
	C573.467041,389.507721 580.585022,394.847626 583.288269,403.912506 
	C585.045166,409.803955 585.495117,416.085114 586.491394,421.960297 
	C591.363953,416.178040 592.016846,409.001282 591.771240,401.442261 
	C591.451904,391.613403 586.602417,384.656097 578.648071,379.570557 
	C568.385864,373.009491 558.762451,376.127991 548.807678,382.243713 
M98.099403,400.988922 
	C102.142151,400.767670 106.184898,400.546417 110.816574,400.292908 
	C105.657471,390.573456 96.160431,380.718964 86.759354,377.307404 
	C76.334198,373.524170 65.910919,376.701202 59.171703,384.768677 
	C50.688404,394.924042 50.159874,406.636292 55.099815,418.677551 
	C55.398670,419.406006 56.510193,419.801117 57.532337,420.567993 
	C59.784836,404.742188 59.815289,404.640350 64.106781,398.200348 
	C69.091965,390.719360 75.685608,389.011993 83.632866,393.230743 
	C88.216629,395.664062 92.739212,398.212616 98.099403,400.988922 
M218.634644,496.748505 
	C218.323486,495.810455 217.874756,494.894135 217.722412,493.930969 
	C216.181381,484.187317 212.730957,481.987091 203.378906,484.846436 
	C193.781555,487.780823 190.196289,492.546631 190.526703,502.077484 
	C190.736572,508.131592 194.320923,511.642395 199.553391,513.966003 
	C204.724380,516.262268 209.080521,514.991577 213.151566,511.414154 
	C217.372681,507.704956 217.756897,502.556488 218.634644,496.748505 
M433.834900,484.391693 
	C428.622620,492.525879 428.674622,500.826935 433.057190,509.259033 
	C435.199524,513.380920 439.358185,515.604980 443.200806,515.046204 
	C446.788513,514.524536 451.086456,511.923401 453.079651,508.916840 
	C456.715668,503.432220 456.811371,496.872681 452.658600,491.265808 
	C448.219025,485.271637 441.668579,483.779358 433.834900,484.391693 
M97.683784,371.002045 
	C100.745689,372.094086 103.862373,373.054504 106.859612,374.301880 
	C117.508873,378.733948 127.889603,384.468933 140.612259,380.198761 
	C136.181549,371.330994 130.347473,363.704651 119.841965,362.409943 
	C110.414680,361.248108 101.490875,363.970367 92.910187,369.286194 
	C94.828415,370.057159 95.880753,370.480103 97.683784,371.002045 
M513.223511,374.602875 
	C511.807587,376.449890 510.391693,378.296906 508.910767,380.228729 
	C526.325134,384.819641 538.951111,373.559998 553.625793,368.787872 
	C550.594543,366.886505 547.511841,365.285309 544.235413,364.405884 
	C530.449890,360.705688 520.127563,363.141388 513.223511,374.602875 
M184.808167,381.027771 
	C194.468323,379.142242 204.128464,377.256714 213.788605,375.371216 
	C213.925018,374.611664 214.061432,373.852112 214.197845,373.092560 
	C209.870621,371.034607 205.543396,368.976624 201.251663,366.935547 
	C201.801727,366.498535 202.548401,365.905304 203.311050,365.299408 
	C194.416962,360.803711 185.167206,366.246674 178.758759,379.703369 
	C179.653488,380.131897 180.512466,380.691895 181.454056,380.947998 
	C182.230118,381.159027 183.104080,381.010071 184.808167,381.027771 
M441.346466,375.018524 
	C451.546143,377.924042 461.384552,383.031525 472.558380,380.407806 
	C471.772766,370.838745 463.540222,364.208069 453.297607,364.007568 
	C451.938416,363.980988 450.573608,364.242188 449.211365,364.370117 
	C448.978912,364.785004 448.746460,365.199860 448.514008,365.614746 
	C449.619507,365.904053 450.725037,366.193359 451.952179,366.514496 
	C447.299255,368.477875 443.691040,369.778290 440.315430,371.527557 
	C438.841431,372.291382 436.892700,374.037231 441.346466,375.018524 
M266.793671,642.120117 
	C265.183136,651.477173 263.572601,660.834229 262.221771,668.682434 
	C271.771149,656.392273 274.622894,640.374695 275.536377,623.711609 
	C273.268036,629.971008 265.132202,633.266113 266.793671,642.120117 
M380.684662,630.987915 
	C378.868164,628.619141 377.051666,626.250366 374.670044,623.144653 
	C375.844788,640.564819 379.729431,656.232361 388.668915,670.430481 
	C387.531281,662.091248 385.989471,653.853699 384.446960,645.616333 
	C383.564087,640.901672 385.042480,635.612793 380.684662,630.987915 
z"/>
<path fill="#FBFBFB" opacity="1.000000" stroke="none" 
	d="
M194.616760,292.619598 
	C185.944504,301.028168 180.441513,311.484192 175.495056,322.290375 
	C174.264084,324.979614 173.184723,327.738251 171.648346,331.384155 
	C168.215393,318.978210 168.153275,293.860596 172.142212,276.083832 
	C171.710754,275.845245 171.279282,275.606659 170.847824,275.368073 
	C167.345016,281.702515 163.441910,287.854645 160.450150,294.421875 
	C157.356186,301.213470 155.147079,308.408173 152.668091,315.109772 
	C150.810242,300.909088 150.918915,286.436462 155.394806,272.299072 
	C157.080032,266.976196 158.892517,261.590881 161.498260,256.686310 
	C165.413696,249.316574 168.056793,241.771713 169.615723,233.507187 
	C171.097702,225.650620 174.465546,218.146484 177.052673,210.503799 
	C177.758301,208.419296 178.638779,206.393997 179.439026,204.341522 
	C178.935822,203.993958 178.432602,203.646393 177.929398,203.298828 
	C172.670013,208.955093 167.410629,214.611359 161.025345,221.478500 
	C161.859665,217.625732 162.325989,215.054245 162.978729,212.531021 
	C165.696228,202.026382 171.327637,192.942764 178.493362,185.161758 
	C193.273376,169.112747 209.696487,154.876022 229.645584,145.464493 
	C237.053268,141.969711 244.958054,139.528610 252.904694,136.504822 
	C244.712921,131.881805 236.724930,127.367554 228.730301,122.865105 
	C225.547791,121.072777 222.285904,119.412445 219.171738,117.509422 
	C207.919983,110.633636 201.187561,117.095825 196.352005,125.203201 
	C192.765030,131.217209 190.906708,138.261703 188.271774,144.844528 
	C187.802551,146.016800 187.300980,147.176117 186.686127,148.648438 
	C178.830139,128.612732 185.636169,103.099213 208.501160,96.831001 
	C221.694214,93.214272 232.549484,98.182579 241.937744,106.326149 
	C247.543900,111.189049 251.506561,117.946632 256.064240,123.671921 
	C257.747284,121.534607 259.622559,117.487335 262.789642,115.525558 
	C267.424866,112.654366 272.881531,109.956352 278.174255,109.537628 
	C289.458130,108.644913 301.202118,107.944550 311.411316,114.298683 
	C316.054993,117.188896 319.792664,121.546967 323.886749,125.298775 
	C324.816620,126.150917 325.520233,127.250000 326.544922,128.500092 
	C330.862274,121.462090 335.678650,115.202454 343.328796,112.628639 
	C354.238678,108.958092 365.599152,108.366211 377.017517,109.748734 
	C386.652618,110.915344 392.879059,116.613365 397.005066,125.850891 
	C399.474274,121.576874 401.429260,117.630226 403.894012,114.032898 
	C411.077362,103.548897 421.352295,97.998741 433.741302,96.143295 
	C451.802551,93.438354 467.360229,105.360886 470.421906,120.835655 
	C472.277008,130.211548 472.283447,139.754333 467.696228,149.271225 
	C465.877808,143.105392 464.767700,137.389481 462.487579,132.186340 
	C460.414398,127.455460 457.393890,123.029160 454.199829,118.929092 
	C450.518768,114.203819 445.198730,113.486336 440.026367,115.965683 
	C426.528290,122.435883 413.206207,129.273239 398.667999,136.536728 
	C405.050873,138.654755 410.377197,140.260513 415.586945,142.182404 
	C429.141876,147.182861 441.102844,155.109543 452.119965,164.144485 
	C463.761841,173.691742 475.499329,183.569229 482.972565,196.961807 
	C486.681641,203.608734 488.600464,211.261551 491.223328,218.497665 
	C491.503326,219.270248 491.072144,220.300583 490.874695,222.076630 
	C484.735168,214.298019 480.374268,205.879669 471.304382,201.293625 
	C474.905090,210.032562 478.431396,217.864960 481.331085,225.922821 
	C482.869812,230.198639 482.976501,234.974625 484.351624,239.328339 
	C486.032104,244.648773 487.956573,249.972183 490.493103,254.926956 
	C497.734711,269.072601 500.653717,284.062500 500.337921,299.821625 
	C500.250793,304.169983 500.324646,308.521576 499.443359,313.056396 
	C494.514160,300.279053 490.187378,287.454681 481.362366,276.834473 
	C484.241669,294.656921 484.271698,312.250763 481.106415,328.667725 
	C473.922607,316.425171 466.321350,303.471222 458.720062,290.517273 
	C458.175171,290.764709 457.630280,291.012115 457.085388,291.259552 
	C457.865387,296.582916 459.045715,301.884338 459.338837,307.234375 
	C459.884735,317.199127 459.992310,327.191864 460.029114,337.173889 
	C460.032532,338.096771 458.344055,339.231934 457.225250,339.914581 
	C453.767517,342.024445 450.202026,343.957458 446.685577,345.971710 
	C445.696045,346.538513 444.776947,347.248077 443.747009,347.721161 
	C439.825348,349.522522 435.871613,351.253967 432.310638,352.841766 
	C426.503998,352.121490 420.568695,351.385284 414.645355,350.650543 
	C416.988617,339.406219 419.546539,327.131653 422.048309,315.126587 
	C429.099792,322.130798 432.973907,331.155945 432.260712,342.060211 
	C437.492157,324.370514 434.461029,306.883026 430.922028,289.405518 
	C431.460114,289.176910 431.998199,288.948303 432.536285,288.719696 
	C435.169342,294.010956 437.802368,299.302216 441.083038,305.894897 
	C441.027679,285.118073 436.639313,265.955292 434.762878,245.787354 
	C443.136383,249.501801 448.043243,255.429443 452.119263,263.101929 
	C452.893188,264.009338 453.246948,264.445312 453.600708,264.881256 
	C453.845062,264.756500 454.089417,264.631714 454.333740,264.506927 
	C453.983276,263.579620 453.632812,262.652313 453.282349,261.725037 
	C450.298920,251.508514 447.474823,241.241653 444.269287,231.095306 
	C442.490997,225.466660 440.075409,220.039383 437.312286,212.875473 
	C443.141815,214.734711 447.964172,216.272720 452.786530,217.810730 
	C453.152222,217.514587 453.517883,217.218460 453.883545,216.922318 
	C441.365967,197.366867 433.506195,175.162125 418.502991,156.921539 
	C424.016113,171.154602 428.906464,185.415146 429.275085,201.007812 
	C427.760223,201.409775 426.548523,201.731293 425.246735,202.076721 
	C427.565460,225.858719 426.175201,248.788315 412.070862,268.768005 
	C412.070862,257.303650 412.070862,245.668442 412.070862,234.033249 
	C411.745483,233.869766 411.420105,233.706284 411.094727,233.542786 
	C409.944702,234.939514 408.856476,236.393204 407.632477,237.721802 
	C404.557343,241.059692 401.706665,244.686447 398.236542,247.557480 
	C393.920258,251.128571 391.379761,250.419861 388.076263,245.858139 
	C387.186584,244.629639 386.081940,243.556808 384.161621,243.009811 
	C386.287659,249.903061 388.722046,256.719452 390.464661,263.708282 
	C392.844330,273.252228 393.187195,282.903137 389.997040,292.418060 
	C387.406555,300.144348 380.804962,304.647644 372.622772,304.952789 
	C359.631409,305.437225 348.778809,300.655426 339.605316,291.868866 
	C330.075226,282.740723 332.509460,265.286896 344.256622,258.769043 
	C349.185364,256.034363 354.427460,253.712540 359.764587,251.903671 
	C366.650909,249.569733 368.606537,244.883255 366.838837,238.403336 
	C365.797089,234.584518 363.303284,231.161789 361.011444,226.678513 
	C356.752472,234.663132 349.447815,233.356033 343.676178,234.421677 
	C328.965485,237.137772 314.112213,236.301834 299.581757,232.450531 
	C296.927582,231.747055 294.567902,229.932648 291.589325,228.379196 
	C287.052856,232.625595 283.960632,237.877838 285.802094,245.266846 
	C286.921509,249.758698 290.074066,251.410522 293.897247,252.934448 
	C299.278625,255.079468 305.314819,256.660919 309.616486,260.234314 
	C322.783295,271.171936 323.657715,284.808746 309.880493,295.093323 
	C301.667114,301.224487 292.287292,304.851105 281.680786,304.978027 
	C268.144073,305.140015 261.726715,295.848389 260.828613,284.305939 
	C259.799194,271.075012 262.263031,258.404480 267.659424,245.625946 
	C267.792175,244.766220 267.722839,244.513565 267.653503,244.260910 
	C267.349762,244.421295 267.046051,244.581665 266.742310,244.742035 
	C266.582611,244.789459 266.385315,244.792282 266.268616,244.890701 
	C258.702850,251.269943 257.698303,251.218552 250.554565,244.060638 
	C248.908630,242.411453 247.151520,240.854614 245.659912,239.075577 
	C244.309082,237.464417 243.250656,235.608093 241.356827,232.819733 
	C238.881393,245.022797 239.380051,256.171051 240.039917,267.848969 
	C238.552444,265.692108 236.808716,263.666870 235.621307,261.355835 
	C230.117279,250.643295 227.026047,239.249756 226.728027,227.182388 
	C226.571793,220.855530 226.724625,214.521561 226.675079,208.191299 
	C226.651367,205.160034 227.487991,201.850433 223.746552,199.987747 
	C223.061447,199.646667 222.558945,197.843613 222.791473,196.922180 
	C225.401718,186.578674 228.172165,176.275604 230.900360,165.961868 
	C231.395126,164.091385 231.893692,162.221878 232.390503,160.351929 
	C231.846207,160.100067 231.301910,159.848206 230.757599,159.596359 
	C219.937683,179.096573 209.117783,198.596802 197.975143,218.678635 
	C203.829010,216.445282 208.955307,214.489502 214.563034,212.350052 
	C208.579224,229.847702 202.998138,246.167740 197.417053,262.487762 
	C197.969238,262.820496 198.521423,263.153229 199.073608,263.485962 
	C203.562408,256.528534 207.730392,249.225327 217.313431,245.885666 
	C215.084015,264.994812 212.936050,283.405823 210.788086,301.816803 
	C211.414719,301.949341 212.041336,302.081879 212.667969,302.214417 
	C214.386765,298.843414 216.105560,295.472443 217.826981,292.096344 
	C217.826981,307.275482 217.826981,322.283112 217.826981,338.711670 
	C221.808212,329.656311 225.255676,321.815033 228.703140,313.973724 
	C229.142471,314.162567 229.581818,314.351379 230.021164,314.540192 
	C232.628906,326.626923 235.236649,338.713684 237.729218,350.266632 
	C232.238892,351.225983 227.147156,352.117096 222.054611,353.003754 
	C221.407181,353.116486 220.611588,353.498260 220.128403,353.260345 
	C215.506165,350.984375 210.880905,348.702789 206.367493,346.220978 
	C201.983902,343.810577 197.730530,341.163422 192.746002,338.222565 
	C190.181992,324.200531 191.648590,309.091858 195.654999,293.577332 
	C195.885956,292.685852 195.912308,292.333282 196.153931,291.971497 
	C196.273804,291.785767 196.178421,291.609222 196.083038,291.432678 
	C196.068542,291.654053 196.054047,291.875458 195.784470,291.862244 
	C195.225189,291.958313 194.920975,292.288940 194.616760,292.619598 
M361.967224,166.153152 
	C360.974426,170.278442 359.235992,174.384781 359.130585,178.532639 
	C358.830658,190.335785 364.162415,200.743759 368.430176,211.354980 
	C369.022705,212.828201 370.425354,213.975616 372.016693,215.986053 
	C372.016693,208.942657 372.235413,202.944992 371.942047,196.972488 
	C371.736359,192.784668 373.397186,191.294617 377.416351,190.456696 
	C384.795410,188.918274 392.255341,187.120514 396.516693,179.694778 
	C397.135529,178.616394 398.840454,177.762558 400.159851,177.557327 
	C404.665466,176.856491 409.223328,176.491653 414.815765,175.884018 
	C412.894348,174.119675 411.627716,172.360519 409.910553,171.489029 
	C404.242096,168.612198 398.456268,165.952118 392.629242,163.406342 
	C386.813965,160.865692 380.959320,158.553818 374.312439,160.310867 
	C371.172455,161.140900 368.933441,159.974731 367.405670,156.606247 
	C366.078674,153.680481 363.547882,151.300690 361.997925,149.268204 
	C361.997925,154.431793 361.997925,159.869232 361.967224,166.153152 
M256.468628,180.709167 
	C260.996857,187.815247 268.063446,189.897614 275.873505,190.610748 
	C278.120270,190.815887 279.821014,191.510254 279.935944,194.484634 
	C280.195648,201.205505 280.855164,207.910919 281.368134,214.840027 
	C282.079865,213.960190 283.084869,213.212540 283.411255,212.237656 
	C286.635254,202.608856 289.905609,192.989273 292.779724,183.253983 
	C293.510162,180.779785 293.424561,177.763199 292.773071,175.238602 
	C290.751373,167.404129 288.559448,159.672623 290.827057,151.497131 
	C291.028748,150.769852 290.560944,149.856857 290.190979,147.906754 
	C288.745758,150.673965 287.870483,152.410248 286.941711,154.117432 
	C283.491943,160.458481 281.091949,161.543518 274.130554,160.142410 
	C272.941254,159.903046 271.512726,159.713120 270.453979,160.141357 
	C260.373108,164.218719 250.328461,168.388336 240.334930,172.674881 
	C239.218658,173.153671 238.484009,174.522125 236.620850,176.475723 
	C240.717148,176.475723 243.390106,176.122116 245.925674,176.561417 
	C249.431702,177.168869 253.721619,175.891632 256.468628,180.709167 
z"/>
<path fill="#F9F9F9" opacity="1.000000" stroke="none" 
	d="
M50.365986,493.240417 
	C47.537216,496.543213 44.708443,499.846039 41.431561,503.672028 
	C41.139549,479.708496 54.431797,462.384399 67.334389,444.891846 
	C67.034470,444.543091 66.734543,444.194305 66.434616,443.845520 
	C61.828213,446.998535 57.221809,450.151550 52.615402,453.304565 
	C52.332497,453.084778 52.049591,452.865021 51.766685,452.645264 
	C53.030571,450.529114 54.150688,448.309937 55.581654,446.313568 
	C64.830093,433.410675 76.803055,423.418976 90.193878,415.204468 
	C99.471016,409.513428 108.799812,404.256348 116.706070,396.408173 
	C126.468979,386.717010 149.903656,388.012360 159.619446,397.756470 
	C160.558838,398.698608 161.378143,399.760529 162.799011,401.394562 
	C167.436157,393.772034 173.976074,390.047974 182.382767,389.570190 
	C190.651749,389.100250 197.831131,391.469543 203.198868,397.140778 
	C208.515305,390.025299 213.270874,382.763794 218.934235,376.297302 
	C226.818909,367.294525 234.343048,366.527283 244.862915,373.107269 
	C258.458405,381.611023 259.270142,399.509644 248.988312,408.907898 
	C247.974594,403.814423 247.403839,398.071289 245.562180,392.769623 
	C244.453964,389.579285 241.780151,386.510101 239.007553,384.484955 
	C237.435654,383.336761 233.339325,383.393768 231.933090,384.648560 
	C224.783875,391.027924 218.142426,397.976288 210.699921,405.342224 
	C236.151077,412.156982 252.572083,428.160339 263.417450,450.640686 
	C259.659821,447.833069 255.902191,445.025421 252.144577,442.217773 
	C251.797089,442.563599 251.449600,442.909393 251.102112,443.255188 
	C261.342621,460.891449 267.528900,479.831360 270.162872,500.988129 
	C266.101593,496.583710 262.658569,492.849762 259.215546,489.115814 
	C258.676239,489.462799 258.136932,489.809784 257.597656,490.156769 
	C259.583771,495.773926 261.640869,501.367218 263.541687,507.013123 
	C267.887817,519.922058 273.172089,532.623169 276.212677,545.837341 
	C280.428986,564.160950 277.495270,582.255554 270.243622,599.708801 
	C270.832306,586.685791 267.842499,574.564209 262.112427,562.985657 
	C264.420410,585.079468 265.646576,606.810242 249.981766,626.297485 
	C249.360016,618.828125 248.844238,612.631592 248.248596,605.475830 
	C245.533020,614.451721 243.315369,622.347107 240.743378,630.125305 
	C238.131622,638.023682 232.339325,643.592712 225.867264,650.042969 
	C226.629578,641.776978 227.277847,634.747742 227.926117,627.718445 
	C227.460968,627.556091 226.995819,627.393799 226.530670,627.231445 
	C220.260880,643.644531 209.864487,656.889709 197.643982,666.954163 
	C204.379395,649.587036 212.008102,631.272583 218.581665,612.587036 
	C225.210495,593.744324 228.267792,574.088989 228.821625,553.429504 
	C236.001205,554.883423 238.708374,560.162476 241.542587,565.626343 
	C242.901749,550.719788 235.756226,537.336365 234.411392,522.374634 
	C237.357513,526.306763 240.303635,530.238831 244.195663,535.433411 
	C242.679916,524.629944 241.344299,515.110291 240.008698,505.590698 
	C240.249359,505.449158 240.490036,505.307617 240.730713,505.166046 
	C244.103607,510.513092 247.476501,515.860107 250.849396,521.207092 
	C251.321747,520.988647 251.794098,520.770142 252.266449,520.551636 
	C249.547394,500.586426 245.831360,480.832581 238.547577,460.820831 
	C243.168304,462.891632 247.052460,464.632324 251.727081,466.727295 
	C245.241135,451.188232 239.736404,436.081879 229.998077,423.042419 
	C229.310440,422.121674 228.337494,421.414001 226.839890,420.635345 
	C226.374756,421.188812 226.566956,421.714203 226.759155,422.239594 
	C228.084549,427.275330 230.130020,432.249634 230.566162,437.361237 
	C231.216873,444.987305 230.994766,452.721832 230.653198,460.388336 
	C230.354050,467.102234 229.413239,473.789917 228.664795,480.478973 
	C228.551331,481.493134 227.943451,482.451996 227.358337,483.971008 
	C216.990875,471.955170 212.585617,457.411011 205.472626,444.447296 
	C210.679047,439.928955 213.591446,432.248016 222.847595,435.424377 
	C223.359467,434.437592 223.871323,433.450806 224.383194,432.464020 
	C223.083023,432.185120 221.717865,432.073792 220.493546,431.599213 
	C214.068130,429.108490 207.715500,426.426544 201.262100,424.012878 
	C197.469376,422.594360 193.735962,421.413269 193.164368,416.509033 
	C193.053619,415.558746 192.048523,414.712769 191.035019,413.988861 
	C190.583618,423.711182 193.004700,432.657990 197.133713,441.356110 
	C202.414581,452.480713 207.282104,463.801575 212.406906,475.214081 
	C209.611404,475.776642 209.611404,475.776642 203.819504,469.367615 
	C189.912796,472.267700 176.411514,472.265778 162.284668,468.564941 
	C158.763260,471.580688 159.789856,479.723389 165.008621,483.042145 
	C166.400864,483.927490 167.941864,484.670593 169.513229,485.166138 
	C175.264313,486.979797 179.722092,489.971741 180.510284,496.533173 
	C181.394821,503.896851 178.983826,510.028259 172.147949,513.055969 
	C165.283783,516.096252 158.066620,519.272583 150.737686,520.141296 
	C134.144897,522.108093 129.657516,508.605713 131.719681,497.121552 
	C132.611359,492.155762 131.281158,490.239136 127.461205,487.731079 
	C121.844208,484.043243 116.847954,479.403259 111.635262,475.110596 
	C110.148582,473.886292 108.828049,472.460266 107.431335,471.126740 
	C106.879868,471.239044 106.328400,471.351349 105.776932,471.463654 
	C105.234344,480.817566 104.691765,490.171478 104.192253,498.782837 
	C98.722420,492.959595 95.356697,481.654541 92.940575,443.398376 
	C83.895309,448.223480 74.381828,487.931610 76.454674,512.697388 
	C79.354462,506.881805 82.130478,501.314484 84.906487,495.747162 
	C84.243134,510.640411 86.314369,524.850891 89.278084,539.021362 
	C90.552238,532.959290 91.826401,526.897278 93.345840,519.668213 
	C110.689369,553.567688 120.137131,588.929626 132.957535,622.954346 
	C133.612335,622.783813 134.267120,622.613220 134.921906,622.442688 
	C134.674698,618.261536 134.427490,614.080383 134.180283,609.899231 
	C143.522720,632.582153 161.944748,651.171082 164.709244,678.036682 
	C159.015152,672.941223 154.383347,668.544067 149.481323,664.472168 
	C143.010132,659.096741 136.072235,654.262085 129.803452,648.669800 
	C122.897156,642.508789 116.127769,636.097900 110.037155,629.148682 
	C104.965744,623.362427 100.943466,616.653198 96.515991,610.311218 
	C96.066818,609.667908 96.027481,608.738464 95.797943,607.941833 
	C95.328178,608.339600 94.858406,608.737366 94.388634,609.135071 
	C98.343475,624.747864 102.298325,640.360657 106.088272,656.525513 
	C105.923370,657.077576 105.642006,657.359314 105.642006,657.359314 
	C92.415092,642.080017 79.419685,626.634705 70.485237,608.056213 
	C74.846451,625.901123 77.619087,643.647949 74.874008,661.963867 
	C71.487762,653.270813 67.878288,644.656616 64.769630,635.865356 
	C60.524803,623.860962 55.917095,611.901550 52.938198,599.567017 
	C51.373573,593.088440 52.858711,585.847900 53.199333,578.962891 
	C53.249306,577.952820 54.593906,577.006897 55.339493,576.031250 
	C56.245560,576.822876 57.365417,577.468506 58.022167,578.430359 
	C61.626427,583.709167 65.117249,589.065369 69.622269,593.912109 
	C64.313438,577.272034 62.015831,560.511292 62.145855,543.408081 
	C68.915985,552.764771 75.665901,562.093567 82.415817,571.422363 
	C83.031410,571.071716 83.647003,570.721008 84.262596,570.370361 
	C75.574776,550.150208 67.034187,529.893127 67.592545,507.112457 
	C59.931580,516.381653 55.284748,526.857544 52.912086,538.871460 
	C51.961109,533.211487 50.345375,527.567200 50.212143,521.888000 
	C50.002842,512.966553 50.792854,504.021637 51.502213,494.474854 
	C51.717304,493.220551 51.589886,492.577972 51.462463,491.935425 
	C51.096962,492.370422 50.731472,492.805420 50.365986,493.240417 
M148.706207,429.832794 
	C147.250427,424.304718 145.794632,418.776642 144.338837,413.248566 
	C144.132996,420.258881 138.778763,422.260315 133.620163,424.400482 
	C131.204483,425.402679 128.600708,426.014648 126.302139,427.222198 
	C122.050369,429.455719 117.960503,431.997467 114.151939,434.208374 
	C117.892067,435.354614 121.844124,435.480103 124.080803,437.502625 
	C127.541893,440.632324 130.695618,443.288025 135.599304,443.160706 
	C139.003342,443.072327 141.060318,444.821564 141.900055,448.194855 
	C142.824814,451.909851 143.974884,455.568726 145.026794,459.252075 
	C148.064423,449.730347 152.614807,440.631866 148.706207,429.832794 
M85.429710,572.606750 
	C84.851639,572.157349 84.273575,571.708008 83.695503,571.258606 
	C83.973846,571.891541 84.252182,572.524536 85.429710,572.606750 
z"/>
<path fill="#FAFAFA" opacity="1.000000" stroke="none" 
	d="
M572.063171,596.107666 
	C573.448792,595.277893 574.834351,594.448120 577.597900,592.793152 
	C575.766785,597.744141 574.380066,601.493408 572.797852,605.884155 
	C571.541809,608.923096 570.481262,611.320618 569.420654,613.718140 
	C559.960693,629.965576 548.884705,645.026917 535.835938,658.835999 
	C539.397522,644.685364 542.959167,630.534668 546.520813,616.384033 
	C546.047241,616.096924 545.573669,615.809753 545.100098,615.522644 
	C529.718079,642.381226 501.702271,655.814636 481.308258,677.347229 
	C480.809906,677.183044 480.311554,677.018860 479.813202,676.854675 
	C480.772583,672.251282 480.964142,667.305359 482.835724,663.108826 
	C488.386658,650.662170 494.576721,638.499573 500.565369,626.249634 
	C502.916199,621.440918 505.395752,616.695129 508.822144,612.157898 
	C508.937866,614.362671 509.053589,616.567444 509.169312,618.772217 
	C509.511322,618.967590 509.853363,619.162964 510.195374,619.358337 
	C511.535706,617.156250 513.293213,615.103638 514.144958,612.726501 
	C518.092163,601.709717 521.477295,590.484253 525.649902,579.557373 
	C531.261597,564.862061 537.434387,550.381409 543.317810,535.789124 
	C545.408142,530.604553 547.356689,525.362793 550.426941,519.890076 
	C551.760925,525.788147 553.094910,531.686157 554.590454,538.298401 
	C558.329773,524.394775 559.111694,510.719147 558.461182,496.874237 
	C558.880371,496.723785 559.299500,496.573334 559.718689,496.422882 
	C562.003113,500.707489 564.287476,504.992126 566.636169,509.397308 
	C570.335266,496.866882 562.231262,453.089783 551.449341,441.562775 
	C552.465149,463.171234 550.274231,483.283142 539.610168,501.496246 
	C541.363342,485.405792 539.036072,476.941925 537.184570,472.346130 
	C529.121094,478.771851 520.888855,485.332001 512.026611,492.394196 
	C512.340637,494.802032 513.204773,498.689819 513.291016,502.594788 
	C513.566406,515.067139 504.110229,523.133179 492.116791,520.098389 
	C484.967377,518.289368 478.063232,515.298889 471.282379,512.309692 
	C465.401428,509.717194 463.857208,504.423218 464.144836,498.330811 
	C464.404144,492.838745 466.838776,488.910309 471.784790,486.526184 
	C473.134369,485.875610 474.442780,485.127319 475.826355,484.561432 
	C484.334351,481.081696 485.338745,475.282135 483.667450,468.185822 
	C470.707123,472.085876 457.686707,472.496643 444.441193,469.501923 
	C443.049591,469.187286 440.893585,471.796204 439.246918,473.226807 
	C438.141571,474.187103 437.309296,475.461700 436.354828,476.595673 
	C435.808228,476.248108 435.261627,475.900574 434.715027,475.553040 
	C437.414764,469.334198 439.948120,463.036346 442.854614,456.915680 
	C446.863892,448.472565 451.529877,440.322418 455.176727,431.733490 
	C457.185669,427.002014 457.684601,421.629395 457.944183,415.988129 
	C455.240143,424.846130 446.769287,423.105042 441.129364,426.050293 
	C436.830231,428.295288 432.317871,430.129456 427.956848,432.261841 
	C427.436096,432.516479 427.270355,433.497253 426.710175,434.589813 
	C428.044678,434.811035 428.955780,435.154419 429.827393,435.073395 
	C433.680878,434.715240 436.793427,435.355194 438.227417,439.641266 
	C438.889832,441.621124 440.236633,443.372009 441.273132,445.226685 
	C442.088074,444.853455 442.903015,444.480255 443.717957,444.107025 
	C436.895081,456.986511 430.072235,469.865997 423.249359,482.745483 
	C422.584778,482.523560 421.920197,482.301666 421.255615,482.079742 
	C418.203430,461.788452 416.925690,441.553680 423.800781,421.637665 
	C419.216766,423.025330 406.268524,446.652039 400.403229,464.898773 
	C404.158142,463.525848 407.506866,462.301453 410.670837,461.144623 
	C405.814087,482.996246 400.992371,504.690460 396.170624,526.384644 
	C396.439148,526.410522 396.707672,526.436401 396.976196,526.462280 
	C401.202545,519.177185 405.428864,511.892090 409.655212,504.606964 
	C409.914551,504.757050 410.173889,504.907104 410.433228,505.057159 
	C409.052399,514.943176 407.671600,524.829224 406.290771,534.715271 
	C406.590088,534.867004 406.889404,535.018677 407.188721,535.170410 
	C410.124146,530.830872 413.059570,526.491394 415.994995,522.151917 
	C416.367554,522.252686 416.740143,522.353394 417.112701,522.454163 
	C413.813202,536.170288 410.513702,549.886414 407.214172,563.602539 
	C407.819519,563.806885 408.424866,564.011169 409.030212,564.215515 
	C410.884949,561.662842 412.471008,558.837524 414.687988,556.652344 
	C416.190125,555.171753 418.578857,554.590637 420.571075,553.607178 
	C421.081512,555.583191 421.935974,557.539856 422.048523,559.538269 
	C423.039459,577.130981 425.723541,594.442200 431.002289,611.260559 
	C436.236267,627.936401 441.848175,644.493652 447.289764,661.104370 
	C447.634888,662.157837 447.939941,663.224487 448.638763,665.514160 
	C435.561768,654.021179 427.552612,640.782349 422.922211,625.317993 
	C422.510468,625.449158 422.098755,625.580322 421.687012,625.711487 
	C422.392914,633.453003 423.098816,641.194519 423.791962,648.796082 
	C414.056213,644.430725 405.285736,623.275146 402.974060,604.624451 
	C402.134155,612.080078 401.294220,619.535767 400.367279,627.763855 
	C393.257965,617.701050 389.415710,607.093323 388.416199,595.909424 
	C387.424744,584.816162 388.199219,573.565125 388.199219,562.244202 
	C383.299164,574.323181 380.755157,586.860107 380.979492,599.975281 
	C380.451843,600.055420 379.924164,600.135559 379.396484,600.215698 
	C377.597321,589.941528 375.545135,579.703979 374.053650,569.385376 
	C371.275909,550.167664 377.161957,532.421631 383.853027,514.842529 
	C387.094879,506.325470 390.120361,497.726013 392.327301,488.461700 
	C388.617950,492.411743 384.908600,496.361786 380.615234,500.933716 
	C383.776459,480.734222 390.670532,462.401184 398.302338,443.484894 
	C395.148285,445.340820 391.994232,447.196777 388.818817,449.065277 
	C388.786102,443.467133 399.454742,430.290833 409.392334,421.363708 
	C418.185089,413.464935 428.293091,407.707794 440.148254,405.819916 
	C440.049988,404.738953 440.199341,404.052277 439.932709,403.792542 
	C434.427704,398.429474 428.831940,393.159271 423.343689,387.779358 
	C416.956116,381.517822 410.898132,381.972168 407.263397,390.233307 
	C404.716553,396.021729 404.273560,402.735809 402.841522,409.261810 
	C398.149292,404.277374 395.399780,397.839447 396.127808,390.352081 
	C397.215607,379.164185 407.221771,370.125671 417.597168,368.975830 
	C426.362091,368.004486 430.433136,374.546295 435.028442,379.907318 
	C439.661835,385.312744 443.705505,391.223663 448.028473,396.940826 
	C453.702148,391.178436 460.717743,389.865662 468.550323,389.899872 
	C476.945251,389.936554 482.241302,394.293518 486.055878,400.070068 
	C490.893799,397.182251 495.191223,393.570496 500.144287,391.882599 
	C509.871552,388.567749 519.722046,388.883057 528.251831,395.567902 
	C531.826843,398.369659 534.357788,402.566010 538.051758,405.141022 
	C546.557678,411.070465 556.140259,415.604980 564.066833,422.176086 
	C572.892639,429.492615 580.426941,438.382446 588.360352,446.742249 
	C589.455933,447.896759 589.614563,449.940399 589.287598,452.380249 
	C585.910828,450.050995 582.534058,447.721771 579.157349,445.392517 
	C578.727295,445.633514 578.297302,445.874481 577.867310,446.115448 
	C589.427673,463.867340 603.303711,480.688202 602.343384,504.577972 
	C599.173767,500.555847 596.538025,497.211304 593.902344,493.866730 
	C594.008911,507.944427 594.864380,521.625000 590.576416,535.274292 
	C586.971619,526.009949 583.879211,516.550354 576.681030,508.935760 
	C576.310791,530.554321 568.415283,549.767395 559.246155,569.194885 
	C564.606689,568.513550 566.153259,563.590454 568.960632,560.467834 
	C571.902344,557.195801 574.101868,553.256531 576.625793,549.608887 
	C577.160583,549.693481 577.695435,549.778076 578.230225,549.862671 
	C577.549500,558.758850 577.276978,567.711792 576.052307,576.532410 
	C575.155090,582.994507 573.007751,589.283081 571.624512,595.716431 
	C571.660522,596.004272 571.489685,596.224609 571.318848,596.444885 
	C571.566895,596.332458 571.815002,596.220032 572.063171,596.107666 
M518.751343,440.396515 
	C522.118530,435.767303 526.901184,434.513184 532.624573,434.684021 
	C529.223877,431.997437 525.570068,430.218628 522.278748,427.920563 
	C515.514160,423.197327 504.406189,424.802582 502.449615,412.605621 
	C497.702209,428.873199 492.374725,443.755676 500.517609,459.532196 
	C501.873749,455.449493 503.215607,451.946503 504.175812,448.341827 
	C504.889587,445.662170 505.809601,444.210510 509.054871,443.949493 
	C512.165466,443.699249 515.158691,441.990662 518.751343,440.396515 
M400.701538,464.571136 
	C400.250153,464.888580 399.798798,465.206024 399.347443,465.523499 
	C399.974396,465.442322 400.601318,465.361176 400.701538,464.571136 
z"/>
<path fill="#FDFDFD" opacity="1.000000" stroke="none" 
	d="
M286.800568,346.913910 
	C283.794159,337.241791 287.450195,327.200226 296.970245,320.461639 
	C304.636688,315.035126 312.437988,309.320984 322.326782,308.879700 
	C327.198761,308.662262 332.503906,308.535736 336.943085,310.178528 
	C347.124817,313.946320 356.251709,319.806671 362.898743,328.684662 
	C369.085999,336.948578 367.071716,345.485382 363.434601,353.776550 
	C361.179718,348.818176 358.933777,343.879395 356.687805,338.940613 
	C356.118103,338.977051 355.548431,339.013458 354.978729,339.049896 
	C355.713379,352.232391 352.842987,363.853577 340.799438,372.993835 
	C343.419617,364.459625 342.725647,357.305145 340.203918,351.722443 
	C336.039459,360.444336 331.529205,369.890442 327.018951,379.336548 
	C326.417175,379.340302 325.815369,379.344055 325.213593,379.347778 
	C321.214722,370.210114 317.215820,361.072418 312.532867,350.371490 
	C311.535156,358.041565 310.692596,364.518982 309.860229,370.917938 
	C302.978668,369.476654 299.277374,359.671936 298.536957,338.469757 
	C298.113983,338.241180 297.690979,338.012604 297.268005,337.784058 
	C294.574982,342.897125 291.881958,348.010223 289.062347,353.363647 
	C288.406281,351.580566 287.626465,349.461212 286.800568,346.913910 
z"/>
<path fill="#FCFCFC" opacity="1.000000" stroke="none" 
	d="
M346.540161,57.134506 
	C347.828949,57.191067 348.906799,57.162304 349.807465,56.748177 
	C358.405853,52.794510 366.596252,54.847607 373.635986,57.491058 
	C367.022369,65.623489 359.685852,73.303902 353.958649,82.039436 
	C347.355011,92.111862 338.368103,98.827042 328.147491,104.341377 
	C327.119446,104.896042 325.104523,104.283066 323.841827,103.636978 
	C313.569244,98.380829 305.429901,90.962372 298.621063,81.442024 
	C292.840637,73.359627 285.221313,66.593307 278.437439,59.224602 
	C278.139435,58.900902 278.058746,58.377125 277.811707,57.792469 
	C287.452209,53.505531 296.958862,53.162487 307.593658,57.186981 
	C306.290863,53.750160 304.988068,50.313343 303.613586,46.687412 
	C310.811859,41.399803 318.432556,44.574123 327.021301,57.731846 
	C331.886505,47.473721 338.867889,41.679890 349.487732,46.340618 
	C348.429504,49.779049 347.338287,53.324718 346.540161,57.134506 
z"/>
<path fill="#F9F9F9" opacity="1.000000" stroke="none" 
	d="
M347.847504,520.778442 
	C343.027588,526.625916 338.419830,532.196045 333.668518,537.640930 
	C332.074921,539.467102 330.335846,541.407593 328.243958,542.470703 
	C326.908783,543.149292 324.079926,543.012268 323.152771,542.051758 
	C309.519379,527.927124 297.772919,512.729675 294.814331,492.394714 
	C293.239502,481.570404 290.830780,470.869324 288.958344,460.084839 
	C288.574493,457.873932 288.902710,455.539368 288.902710,451.764252 
	C298.243042,474.609589 309.434296,494.524902 326.412872,510.712341 
	C337.563782,502.669250 351.647644,480.324188 365.877869,449.951477 
	C364.119873,462.030334 362.486511,474.129333 360.541046,486.177917 
	C359.789703,490.831421 358.775696,495.541809 357.091675,499.922729 
	C354.409912,506.899506 351.066925,513.622131 347.847504,520.778442 
z"/>
<path fill="#F5F5F5" opacity="1.000000" stroke="none" 
	d="
M202.149872,526.772766 
	C208.134644,531.705627 211.525513,537.460571 210.470535,545.830566 
	C208.727585,543.723633 207.266678,541.957581 205.076599,539.310120 
	C204.462479,550.176086 200.694901,558.285767 191.681091,563.458984 
	C190.860123,557.926514 190.119003,552.932129 189.199493,546.735535 
	C184.483521,553.658264 180.792236,559.076843 176.380936,565.552368 
	C173.957108,559.541626 172.159348,555.083496 170.021042,549.780762 
	C168.694214,552.535339 167.828827,554.332031 166.386169,557.327087 
	C164.518616,551.414124 163.053253,546.774597 161.587891,542.135010 
	C161.112625,541.581787 160.637360,541.028564 160.162079,540.475281 
	C159.057739,542.556335 157.953400,544.637451 156.717239,546.966919 
	C153.393372,543.238098 152.542313,539.848633 155.494247,536.364075 
	C163.702896,526.674500 174.472031,521.180603 186.889130,520.702881 
	C191.790176,520.514404 196.851761,524.499451 202.149872,526.772766 
z"/>
<path fill="#F7F7F7" opacity="1.000000" stroke="none" 
	d="
M446.600922,555.372925 
	C444.571899,550.260376 442.735870,545.465027 440.825500,540.475464 
	C439.673676,541.858582 438.078735,543.773926 436.071320,546.184509 
	C436.167999,538.145813 438.176056,531.824036 444.687622,527.147827 
	C459.504578,516.507446 466.671478,519.680481 483.969208,529.808960 
	C486.558105,531.324829 488.822174,533.800171 490.537964,536.309326 
	C493.243866,540.266357 492.115051,544.424683 488.202026,547.263672 
	C486.769165,545.400513 485.337555,543.532593 484.192657,542.038757 
	C480.530334,549.868774 477.018127,557.377747 473.505951,564.886780 
	C472.862823,564.989319 472.219727,565.091858 471.576630,565.194458 
	C467.228455,559.564697 462.880310,553.934875 457.560883,547.047607 
	C456.568085,553.301636 455.716492,558.665955 454.763580,564.668640 
	C452.283691,561.874817 449.538818,558.782410 446.600922,555.372925 
z"/>
<path fill="#F8F8F8" opacity="1.000000" stroke="none" 
	d="
M248.063995,62.921593 
	C262.803284,57.032269 276.218384,65.054291 284.112640,76.147354 
	C288.220215,81.919373 290.921997,88.749458 293.841766,95.287819 
	C295.628540,99.288956 294.361847,100.544975 289.997314,100.189697 
	C278.010040,99.213875 266.498688,96.387650 255.256363,92.080856 
	C246.627426,88.775215 237.748306,86.122665 228.388458,82.078552 
	C232.672867,80.421844 236.860168,78.407707 241.269241,77.209862 
	C245.601471,76.032883 250.158905,75.684868 254.617523,74.973083 
	C254.754440,74.503334 254.891357,74.033592 255.028290,73.563843 
	C249.570770,71.435707 244.113266,69.307571 238.464981,67.105034 
	C241.434387,65.787796 244.551849,64.404884 248.063995,62.921593 
z"/>
<path fill="#FAFAFA" opacity="1.000000" stroke="none" 
	d="
M402.457336,76.115349 
	C411.332245,75.996979 419.145691,77.926033 426.062988,82.926491 
	C414.852539,86.610611 403.666901,89.725754 392.928009,93.970993 
	C381.839661,98.354362 370.454620,99.387711 358.708801,100.196083 
	C360.550781,84.143143 373.545349,65.772118 389.283417,61.521290 
	C395.288208,59.899406 401.343231,61.172699 407.073456,63.571480 
	C408.983948,64.371269 410.852783,65.270599 413.543488,66.487526 
	C407.633148,69.123146 402.396973,71.458115 395.934967,74.339722 
	C399.017334,75.237312 400.522705,75.675674 402.457336,76.115349 
z"/>
<path fill="#F8F8F8" opacity="1.000000" stroke="none" 
	d="
M187.281799,356.396759 
	C187.751297,357.328461 188.091782,358.636261 187.976990,358.677551 
	C180.287140,361.441833 177.165070,368.941437 171.838638,374.131775 
	C169.064987,376.834595 166.148254,379.390778 163.380920,382.099792 
	C161.212708,384.222351 159.199463,384.109253 156.997543,382.166046 
	C151.812744,377.590424 146.349274,373.305145 141.417892,368.474365 
	C135.528748,362.705322 129.690567,357.063293 120.275314,355.247864 
	C129.155228,350.653778 137.515549,351.771210 146.105942,352.921722 
	C145.344772,350.917725 144.724655,349.285034 144.046844,347.500488 
	C152.038239,345.365814 156.701126,349.918793 161.266983,355.238190 
	C164.153625,351.755188 166.562653,347.252472 171.861618,349.355347 
	C173.166885,349.873352 173.652420,352.456970 174.781845,354.596985 
	C178.184921,355.040558 182.562622,355.611176 187.281799,356.396759 
z"/>
<path fill="#FAFAFA" opacity="1.000000" stroke="none" 
	d="
M499.969513,376.949707 
	C491.981689,384.645416 486.025696,383.691925 479.350403,374.483398 
	C475.998138,369.858887 472.049713,365.637878 468.105011,361.487061 
	C466.726807,360.036835 464.551605,359.344025 461.430603,357.554230 
	C467.195190,356.334564 472.099091,355.296997 476.782379,354.306122 
	C477.774536,352.734314 479.330231,349.204224 480.014282,349.365753 
	C483.435089,350.173492 486.627319,351.949188 490.920410,353.832153 
	C494.719940,350.616669 498.898071,343.453217 507.581543,348.658508 
	C506.543182,350.049286 505.609131,351.300415 504.611969,352.636047 
	C512.610962,352.095215 520.539673,350.488342 527.129089,353.781799 
	C518.179871,361.405121 509.202789,369.052246 499.969513,376.949707 
z"/>
<path fill="#F4F4F4" opacity="1.000000" stroke="none" 
	d="
M549.095215,382.025269 
	C558.762451,376.127991 568.385864,373.009491 578.648071,379.570557 
	C586.602417,384.656097 591.451904,391.613403 591.771240,401.442261 
	C592.016846,409.001282 591.363953,416.178040 586.491394,421.960297 
	C585.495117,416.085114 585.045166,409.803955 583.288269,403.912506 
	C580.585022,394.847626 573.467041,389.507721 566.343811,391.221344 
	C561.997620,392.266876 558.122559,395.193909 553.965027,397.123108 
	C550.251404,398.846283 546.556702,400.843781 542.629578,401.787262 
	C540.219910,402.366150 537.388306,401.189178 534.461487,400.758850 
	C537.291382,392.209076 543.590210,387.653778 549.095215,382.025269 
z"/>
<path fill="#F9F9F9" opacity="1.000000" stroke="none" 
	d="
M97.694374,400.849121 
	C92.739212,398.212616 88.216629,395.664062 83.632866,393.230743 
	C75.685608,389.011993 69.091965,390.719360 64.106781,398.200348 
	C59.815289,404.640350 59.784836,404.742188 57.532337,420.567993 
	C56.510193,419.801117 55.398670,419.406006 55.099815,418.677551 
	C50.159874,406.636292 50.688404,394.924042 59.171703,384.768677 
	C65.910919,376.701202 76.334198,373.524170 86.759354,377.307404 
	C96.160431,380.718964 105.657471,390.573456 110.816574,400.292908 
	C106.184898,400.546417 102.142151,400.767670 97.694374,400.849121 
z"/>
<path fill="#F7F7F7" opacity="1.000000" stroke="none" 
	d="
M218.649857,497.162109 
	C217.756897,502.556488 217.372681,507.704956 213.151566,511.414154 
	C209.080521,514.991577 204.724380,516.262268 199.553391,513.966003 
	C194.320923,511.642395 190.736572,508.131592 190.526703,502.077484 
	C190.196289,492.546631 193.781555,487.780823 203.378906,484.846436 
	C212.730957,481.987091 216.181381,484.187317 217.722412,493.930969 
	C217.874756,494.894135 218.323486,495.810455 218.649857,497.162109 
z"/>
<path fill="#F8F8F8" opacity="1.000000" stroke="none" 
	d="
M434.191864,484.276550 
	C441.668579,483.779358 448.219025,485.271637 452.658600,491.265808 
	C456.811371,496.872681 456.715668,503.432220 453.079651,508.916840 
	C451.086456,511.923401 446.788513,514.524536 443.200806,515.046204 
	C439.358185,515.604980 435.199524,513.380920 433.057190,509.259033 
	C428.674622,500.826935 428.622620,492.525879 434.191864,484.276550 
z"/>
<path fill="#F9F9F9" opacity="1.000000" stroke="none" 
	d="
M97.308434,370.952545 
	C95.880753,370.480103 94.828415,370.057159 92.910187,369.286194 
	C101.490875,363.970367 110.414680,361.248108 119.841965,362.409943 
	C130.347473,363.704651 136.181549,371.330994 140.612259,380.198761 
	C127.889603,384.468933 117.508873,378.733948 106.859612,374.301880 
	C103.862373,373.054504 100.745689,372.094086 97.308434,370.952545 
z"/>
<path fill="#F6F6F6" opacity="1.000000" stroke="none" 
	d="
M513.490417,374.354004 
	C520.127563,363.141388 530.449890,360.705688 544.235413,364.405884 
	C547.511841,365.285309 550.594543,366.886505 553.625793,368.787872 
	C538.951111,373.559998 526.325134,384.819641 508.910767,380.228729 
	C510.391693,378.296906 511.807587,376.449890 513.490417,374.354004 
z"/>
<path fill="#F6F6F6" opacity="1.000000" stroke="none" 
	d="
M184.371414,381.024200 
	C183.104080,381.010071 182.230118,381.159027 181.454056,380.947998 
	C180.512466,380.691895 179.653488,380.131897 178.760529,379.699738 
	C185.167206,366.246674 194.416962,360.803711 203.311050,365.299408 
	C202.548401,365.905304 201.801727,366.498535 201.251663,366.935547 
	C205.543396,368.976624 209.870621,371.034607 214.197845,373.092560 
	C214.061432,373.852112 213.925018,374.611664 213.788605,375.371216 
	C204.128464,377.256714 194.468323,379.142242 184.371414,381.024200 
z"/>
<path fill="#FAFAFA" opacity="1.000000" stroke="none" 
	d="
M440.926331,375.000732 
	C436.892700,374.037231 438.841431,372.291382 440.315430,371.527557 
	C443.691040,369.778290 447.299255,368.477875 451.952179,366.514496 
	C450.725037,366.193359 449.619507,365.904053 448.514008,365.614746 
	C448.746460,365.199860 448.978912,364.785004 449.211365,364.370117 
	C450.573608,364.242188 451.938416,363.980988 453.297607,364.007568 
	C463.540222,364.208069 471.772766,370.838745 472.558380,380.407806 
	C461.384552,383.031525 451.546143,377.924042 440.926331,375.000732 
z"/>
<path fill="#DADCE4" opacity="1.000000" stroke="none" 
	d="
M570.814026,624.997009 
	C570.990906,624.713745 571.217651,624.478638 572.005859,624.464539 
	C573.250854,625.282715 574.138916,625.819641 574.683655,626.597046 
	C575.657654,627.987061 576.424561,629.522217 577.259033,630.963745 
	C577.419678,632.865295 577.597595,634.971375 577.775513,637.077454 
	C575.469604,643.198059 573.122803,649.303711 570.875427,655.445679 
	C569.778198,658.444336 568.866028,661.510620 567.262146,664.428833 
	C566.023376,651.743896 567.670532,639.336975 570.294678,626.489929 
	C570.703552,625.669800 570.758789,625.333435 570.814026,624.997009 
z"/>
<path fill="#E9E9EA" opacity="1.000000" stroke="none" 
	d="
M266.771942,641.751221 
	C265.132202,633.266113 273.268036,629.971008 275.536377,623.711609 
	C274.622894,640.374695 271.771149,656.392273 262.221771,668.682434 
	C263.572601,660.834229 265.183136,651.477173 266.771942,641.751221 
z"/>
<path fill="#F6F6F6" opacity="1.000000" stroke="none" 
	d="
M380.868042,631.320923 
	C385.042480,635.612793 383.564087,640.901672 384.446960,645.616333 
	C385.989471,653.853699 387.531281,662.091248 388.668915,670.430481 
	C379.729431,656.232361 375.844788,640.564819 374.670044,623.144653 
	C377.051666,626.250366 378.868164,628.619141 380.868042,631.320923 
z"/>
<path fill="#121524" opacity="1.000000" stroke="none" 
	d="
M578.184143,637.051880 
	C577.597595,634.971375 577.419678,632.865295 577.259033,630.963745 
	C576.424561,629.522217 575.657654,627.987061 574.683655,626.597046 
	C574.138916,625.819641 573.250854,625.282715 572.241089,624.390991 
	C572.115601,621.698425 572.501343,619.233459 572.306580,616.815247 
	C572.224121,615.790710 570.922546,614.864319 569.797852,613.805725 
	C570.481262,611.320618 571.541809,608.923096 572.828491,606.260864 
	C574.153442,606.639709 575.252380,607.283386 576.675659,607.963501 
	C577.000000,608.000000 576.992004,607.992188 576.992004,607.992188 
	C575.941895,614.340454 582.998962,615.556335 585.423462,619.624573 
	C582.887878,620.764404 581.156799,621.542542 579.425720,622.320679 
	C581.049500,623.594543 582.673218,624.868408 584.576172,626.361267 
	C580.806702,628.082581 580.233459,631.157166 581.595215,635.012512 
	C581.695007,635.294983 579.643921,636.337219 578.184143,637.051880 
M573.460876,620.587830 
	C573.460876,620.587830 573.394775,620.489868 573.460876,620.587830 
z"/>
<path fill="#121524" opacity="1.000000" stroke="none" 
	d="
M577.004028,608.004028 
	C577.008057,606.734253 577.008057,605.460510 577.008057,604.186768 
	C577.369751,604.165405 577.731506,604.144043 578.093201,604.122742 
	C577.944153,605.389038 577.795166,606.655396 577.319092,607.956970 
	C576.992004,607.992188 577.000000,608.000000 577.004028,608.004028 
z"/>
<path fill="#121524" opacity="1.000000" stroke="none" 
	d="
M570.606506,625.136230 
	C570.758789,625.333435 570.703552,625.669800 570.369385,626.103088 
	C570.052734,625.844849 570.155579,625.536682 570.606506,625.136230 
z"/>
<path fill="#F9F9F9" opacity="1.000000" stroke="none" 
	d="
M106.064171,656.936829 
	C106.502419,657.090576 106.799866,657.385132 107.097313,657.679626 
	C106.730934,657.770813 106.364555,657.861938 105.820099,657.656250 
	C105.642006,657.359314 105.923370,657.077576 106.064171,656.936829 
z"/>
<path fill="#080808" opacity="1.000000" stroke="none" 
	d="
M361.982574,165.729904 
	C361.997925,159.869232 361.997925,154.431793 361.997925,149.268204 
	C363.547882,151.300690 366.078674,153.680481 367.405670,156.606247 
	C368.933441,159.974731 371.172455,161.140900 374.312439,160.310867 
	C380.959320,158.553818 386.813965,160.865692 392.629242,163.406342 
	C398.456268,165.952118 404.242096,168.612198 409.910553,171.489029 
	C411.627716,172.360519 412.894348,174.119675 414.815765,175.884018 
	C409.223328,176.491653 404.665466,176.856491 400.159851,177.557327 
	C398.840454,177.762558 397.135529,178.616394 396.516693,179.694778 
	C392.255341,187.120514 384.795410,188.918274 377.416351,190.456696 
	C373.397186,191.294617 371.736359,192.784668 371.942047,196.972488 
	C372.235413,202.944992 372.016693,208.942657 372.016693,215.986053 
	C370.425354,213.975616 369.022705,212.828201 368.430176,211.354980 
	C364.162415,200.743759 358.830658,190.335785 359.130585,178.532639 
	C359.235992,174.384781 360.974426,170.278442 361.982574,165.729904 
z"/>
<path fill="#090909" opacity="1.000000" stroke="none" 
	d="
M256.240051,180.392838 
	C253.721619,175.891632 249.431702,177.168869 245.925674,176.561417 
	C243.390106,176.122116 240.717148,176.475723 236.620850,176.475723 
	C238.484009,174.522125 239.218658,173.153671 240.334930,172.674881 
	C250.328461,168.388336 260.373108,164.218719 270.453979,160.141357 
	C271.512726,159.713120 272.941254,159.903046 274.130554,160.142410 
	C281.091949,161.543518 283.491943,160.458481 286.941711,154.117432 
	C287.870483,152.410248 288.745758,150.673965 290.190979,147.906754 
	C290.560944,149.856857 291.028748,150.769852 290.827057,151.497131 
	C288.559448,159.672623 290.751373,167.404129 292.773071,175.238602 
	C293.424561,177.763199 293.510162,180.779785 292.779724,183.253983 
	C289.905609,192.989273 286.635254,202.608856 283.411255,212.237656 
	C283.084869,213.212540 282.079865,213.960190 281.368134,214.840027 
	C280.855164,207.910919 280.195648,201.205505 279.935944,194.484634 
	C279.821014,191.510254 278.120270,190.815887 275.873505,190.610748 
	C268.063446,189.897614 260.996857,187.815247 256.240051,180.392838 
z"/>
<path fill="#020202" opacity="1.000000" stroke="none" 
	d="
M453.031372,262.028717 
	C453.632812,262.652313 453.983276,263.579620 454.333740,264.506927 
	C454.089417,264.631714 453.845062,264.756500 453.600708,264.881256 
	C453.246948,264.445312 452.893188,264.009338 452.434082,263.275635 
	C452.479309,262.762726 452.629883,262.547546 453.031372,262.028717 
z"/>
<path fill="#020202" opacity="1.000000" stroke="none" 
	d="
M196.039536,292.096832 
	C196.054047,291.875458 196.068542,291.654053 196.083038,291.432678 
	C196.178421,291.609222 196.273804,291.785767 196.185822,291.994659 
	C196.002441,292.027008 196.039536,292.096832 196.039536,292.096832 
z"/>
<path fill="#020202" opacity="1.000000" stroke="none" 
	d="
M194.793839,292.797363 
	C194.920975,292.288940 195.225189,291.958313 195.784470,291.862244 
	C196.039536,292.096832 196.002441,292.027008 195.970551,292.003845 
	C195.912308,292.333282 195.885956,292.685852 195.591705,293.185181 
	C195.206161,293.213013 195.088547,293.094055 194.793839,292.797363 
z"/>
<path fill="#020202" opacity="1.000000" stroke="none" 
	d="
M266.952789,244.939285 
	C267.046051,244.581665 267.349762,244.421295 267.653503,244.260910 
	C267.722839,244.513565 267.792175,244.766220 267.739197,245.255859 
	C267.465729,245.374069 267.314484,245.255295 266.952789,244.939285 
z"/>
<path fill="#0C0C0C" opacity="1.000000" stroke="none" 
	d="
M148.920197,430.180054 
	C152.614807,440.631866 148.064423,449.730347 145.026794,459.252075 
	C143.974884,455.568726 142.824814,451.909851 141.900055,448.194855 
	C141.060318,444.821564 139.003342,443.072327 135.599304,443.160706 
	C130.695618,443.288025 127.541893,440.632324 124.080803,437.502625 
	C121.844124,435.480103 117.892067,435.354614 114.151939,434.208374 
	C117.960503,431.997467 122.050369,429.455719 126.302139,427.222198 
	C128.600708,426.014648 131.204483,425.402679 133.620163,424.400482 
	C138.778763,422.260315 144.132996,420.258881 144.338837,413.248566 
	C145.794632,418.776642 147.250427,424.304718 148.920197,430.180054 
z"/>
<path fill="#020202" opacity="1.000000" stroke="none" 
	d="
M84.980118,572.882080 
	C84.252182,572.524536 83.973846,571.891541 83.695511,571.258606 
	C84.273575,571.708008 84.851639,572.157349 84.980118,572.882080 
z"/>
<path fill="#020202" opacity="1.000000" stroke="none" 
	d="
M50.583649,493.497925 
	C50.731472,492.805420 51.096962,492.370422 51.462463,491.935425 
	C51.589886,492.577972 51.717304,493.220551 51.553001,494.055817 
	C51.107964,494.084167 50.954643,493.919800 50.583649,493.497925 
z"/>
<path fill="#020202" opacity="1.000000" stroke="none" 
	d="
M226.875671,421.807526 
	C226.566956,421.714203 226.374756,421.188812 226.405167,420.610718 
	C226.749252,420.830536 226.870728,421.102997 226.875671,421.807526 
z"/>
<path fill="#0C0C0C" opacity="1.000000" stroke="none" 
	d="
M518.477417,440.659760 
	C515.158691,441.990662 512.165466,443.699249 509.054871,443.949493 
	C505.809601,444.210510 504.889587,445.662170 504.175812,448.341827 
	C503.215607,451.946503 501.873749,455.449493 500.517609,459.532196 
	C492.374725,443.755676 497.702209,428.873199 502.449615,412.605621 
	C504.406189,424.802582 515.514160,423.197327 522.278748,427.920563 
	C525.570068,430.218628 529.223877,431.997437 532.624573,434.684021 
	C526.901184,434.513184 522.118530,435.767303 518.477417,440.659760 
z"/>
<path fill="#020202" opacity="1.000000" stroke="none" 
	d="
M400.964905,464.925568 
	C400.601318,465.361176 399.974396,465.442322 399.347443,465.523499 
	C399.798798,465.206024 400.250153,464.888580 400.964905,464.925568 
z"/>
<path fill="#020202" opacity="1.000000" stroke="none" 
	d="
M572.082886,596.141663 
	C571.815002,596.220032 571.566895,596.332458 571.318848,596.444885 
	C571.489685,596.224609 571.660522,596.004272 571.980957,596.016602 
	C572.130554,596.249207 572.102539,596.175720 572.082886,596.141663 
z"/>
<path fill="#020202" opacity="1.000000" stroke="none" 
	d="
M573.427856,620.538818 
	C573.394775,620.489868 573.460876,620.587830 573.427856,620.538818 
z"/>
</svg>