<?xml version="1.0" encoding="UTF-8"?>
<!DOCTYPE svg PUBLIC "-//W3C//DTD SVG 1.1//EN" "http://www.w3.org/Graphics/SVG/1.1/DTD/svg11.dtd">
<svg xmlns="http://www.w3.org/2000/svg" version="1.1" width="500px" height="500px" style="shape-rendering:geometricPrecision; text-rendering:geometricPrecision; image-rendering:optimizeQuality; fill-rule:evenodd; clip-rule:evenodd" xmlns:xlink="http://www.w3.org/1999/xlink">
<g><path style="opacity:0.882" fill="#7f7f7f" d="M 286.5,71.5 C 277.818,73.6733 269.152,76.1733 260.5,79C 254.879,83.2885 249.546,87.7885 244.5,92.5C 248.336,86.4981 253.336,81.6648 259.5,78C 266.44,75.5143 273.44,73.1809 280.5,71C 282.712,70.2109 284.712,70.3775 286.5,71.5 Z"/></g>
<g><path style="opacity:0.729" fill="#969696" d="M 286.5,71.5 C 288.624,72.0312 290.124,73.3645 291,75.5C 291.823,81.6293 291.323,87.6293 289.5,93.5C 289.833,94.1667 290.167,94.8333 290.5,95.5C 289.325,95.719 288.325,95.3857 287.5,94.5C 291.7,86.426 291.367,78.7593 286.5,71.5 Z"/></g>
<g><path style="opacity:0.592" fill="#747474" d="M 225.5,79.5 C 221.239,78.7505 217.239,77.2505 213.5,75C 209.5,74.6667 205.5,74.3333 201.5,74C 201,73.5 200.5,73 200,72.5C 196.519,73.4661 194.352,75.6327 193.5,79C 194.436,83.8471 195.436,88.6805 196.5,93.5C 196.167,94.1667 195.833,94.8333 195.5,95.5C 182.616,95.3969 169.616,95.5636 156.5,96C 147.466,97.1965 138.8,99.5298 130.5,103C 126.632,105.162 125.132,108.328 126,112.5C 128.593,114.549 131.093,116.715 133.5,119C 127.593,121.789 121.593,124.289 115.5,126.5C 120.269,123.944 124.936,121.11 129.5,118C 122.833,112.667 122.833,107.333 129.5,102C 139.998,97.4322 150.998,94.7655 162.5,94C 173.543,93.7543 184.543,93.5876 195.5,93.5C 188.058,73.7747 194.391,67.2747 214.5,74C 218.354,75.7442 222.021,77.5775 225.5,79.5 Z"/></g>
<g><path style="opacity:0.732" fill="#6b6b6b" d="M 289.5,93.5 C 301.838,93.3335 314.171,93.5001 326.5,94C 331.729,94.752 336.729,95.9186 341.5,97.5C 324.596,94.6178 307.596,93.9511 290.5,95.5C 290.167,94.8333 289.833,94.1667 289.5,93.5 Z"/></g>
<g><path style="opacity:1" fill="#03a2e7" d="M 274.5,96.5 C 273.841,99.4552 273.508,102.455 273.5,105.5C 274.111,108.694 276.111,110.361 279.5,110.5C 287.177,109.439 294.844,108.439 302.5,107.5C 311.98,109.274 321.646,110.107 331.5,110C 328.124,112.065 326.791,115.065 327.5,119C 326.988,122.263 327.988,124.763 330.5,126.5C 331.205,132.187 333.872,133.52 338.5,130.5C 348.326,134.582 357.993,138.915 367.5,143.5C 368.848,144.601 370.348,145.601 372,146.5C 372.483,147.448 372.649,148.448 372.5,149.5C 366.698,148.489 361.865,150.156 358,154.5C 357.299,157.928 357.632,161.262 359,164.5C 360.584,165.861 362.418,166.528 364.5,166.5C 365.241,168.354 366.241,170.021 367.5,171.5C 368.815,174.861 367.482,176.194 363.5,175.5C 359.722,175.278 357.722,173.278 357.5,169.5C 353.391,171.019 349.057,171.853 344.5,172C 343.328,172.419 342.328,173.085 341.5,174C 335.175,174.5 328.842,174.666 322.5,174.5C 322.5,175.5 322.5,176.5 322.5,177.5C 325.567,177.121 326.567,178.121 325.5,180.5C 322.463,182.011 319.296,183.344 316,184.5C 313.074,180.318 309.907,176.318 306.5,172.5C 307.167,171.167 307.833,169.833 308.5,168.5C 306.326,167.107 304.493,167.44 303,169.5C 299.954,165.619 296.454,162.286 292.5,159.5C 287.845,157.288 283.178,155.288 278.5,153.5C 275.83,152.752 273.163,151.752 270.5,150.5C 268.519,148.856 266.519,147.19 264.5,145.5C 262.269,145.853 260.269,146.686 258.5,148C 253.516,147.764 249.016,148.931 245,151.5C 243.667,150.833 242.333,150.167 241,149.5C 240,150.167 239,150.833 238,151.5C 233.916,149.937 229.749,148.603 225.5,147.5C 216.298,149.317 206.965,150.65 197.5,151.5C 197.5,152.5 197.5,153.5 197.5,154.5C 195.738,154.643 194.071,154.309 192.5,153.5C 191.948,155.003 191.948,156.669 192.5,158.5C 189.677,159.217 187.01,160.217 184.5,161.5C 184.5,163.167 184.5,164.833 184.5,166.5C 180.926,165.908 178.926,167.408 178.5,171C 177.552,171.483 176.552,171.649 175.5,171.5C 175.657,172.873 175.49,174.207 175,175.5C 173.615,176.551 172.615,177.884 172,179.5C 170.89,181.037 169.39,181.703 167.5,181.5C 167.5,182.5 167.5,183.5 167.5,184.5C 165.784,184.371 164.117,184.038 162.5,183.5C 161.833,183.5 161.5,183.167 161.5,182.5C 159.68,180.552 157.346,179.552 154.5,179.5C 154.64,177.876 153.973,176.71 152.5,176C 140.496,174.095 128.496,174.095 116.5,176C 115.944,176.383 115.611,176.883 115.5,177.5C 110.351,178.364 110.185,177.364 115,174.5C 115.483,173.552 115.649,172.552 115.5,171.5C 118.436,169.902 121.103,167.902 123.5,165.5C 124.672,165.919 125.672,166.585 126.5,167.5C 126.833,167 127.167,166.5 127.5,166C 125.279,162.216 124.946,158.216 126.5,154C 123.684,150.756 124.35,148.256 128.5,146.5C 126.5,145.833 124.5,145.167 122.5,144.5C 123.711,143.28 123.711,142.113 122.5,141C 124.866,140.438 127.199,140.604 129.5,141.5C 130.167,141.167 130.833,140.833 131.5,140.5C 130.271,139.719 128.938,139.219 127.5,139C 128.025,138.308 128.692,137.808 129.5,137.5C 132.591,139.932 135.591,139.932 138.5,137.5C 140.046,138.684 141.713,139.684 143.5,140.5C 142.572,141.768 142.405,143.101 143,144.5C 144.693,142.396 146.86,140.896 149.5,140C 153.211,139.825 156.878,139.325 160.5,138.5C 160.113,137.28 159.28,136.613 158,136.5C 152.874,137.592 147.707,137.759 142.5,137C 141.09,136.632 140.09,135.799 139.5,134.5C 141.332,133.752 142.999,132.752 144.5,131.5C 145.711,132.274 145.711,133.107 144.5,134C 149.838,135.999 153.504,134.166 155.5,128.5C 154.089,126.983 154.256,125.649 156,124.5C 158.086,118.683 156.253,115.349 150.5,114.5C 150.047,113.542 149.381,112.708 148.5,112C 150.939,110.39 153.606,109.556 156.5,109.5C 174.172,109.845 191.838,110.011 209.5,110C 212.621,106.356 213.288,102.189 211.5,97.5C 210.692,97.1924 210.025,96.6924 209.5,96C 209.859,93.3695 210.859,91.2029 212.5,89.5C 217.861,89.5642 219.861,92.2309 218.5,97.5C 219.822,97.67 220.989,97.3366 222,96.5C 223,97.1667 224,97.8333 225,98.5C 225.168,103.862 227.668,105.862 232.5,104.5C 234.583,107.527 236.583,110.693 238.5,114C 241.146,114.497 243.813,114.664 246.5,114.5C 249.498,109.179 252.998,104.179 257,99.5C 258.398,100.051 259.732,100.384 261,100.5C 261.561,98.2746 262.561,96.2746 264,94.5C 267.862,92.9041 271.195,90.5708 274,87.5C 274.5,88 275,88.5 275.5,89C 274.565,91.3806 274.232,93.8806 274.5,96.5 Z"/></g>
<g><path style="opacity:0.859" fill="#898989" d="M 341.5,97.5 C 347.804,97.9847 353.471,100.151 358.5,104C 362.091,107.344 362.258,110.844 359,114.5C 357.028,115.305 355.528,116.639 354.5,118.5C 363.349,122.42 371.682,127.087 379.5,132.5C 379.565,132.938 379.399,133.272 379,133.5C 369.827,127.997 360.327,123.164 350.5,119C 353,117.167 355.5,115.333 358,113.5C 360.423,108.839 359.256,105.339 354.5,103C 349.944,101.434 345.61,99.6007 341.5,97.5 Z"/></g>
<g><path style="opacity:0.443" fill="#8a8a8c" d="M 380.5,133.5 C 382.027,133.427 383.027,134.094 383.5,135.5C 381.973,135.573 380.973,134.906 380.5,133.5 Z"/></g>
<g><path style="opacity:1" fill="#818180" d="M 115.5,126.5 C 109.26,130.474 103.26,134.807 97.5,139.5C 93.2303,143.275 89.8969,147.775 87.5,153C 88.3366,154.011 88.67,155.178 88.5,156.5C 86.7615,154.881 86.2615,152.881 87,150.5C 93.8203,139.337 103.32,131.337 115.5,126.5 Z"/></g>
<g><path style="opacity:1" fill="#08090a" d="M 97.5,139.5 C 97.8807,140.931 98.8807,141.764 100.5,142C 100.043,142.414 99.7093,142.914 99.5,143.5C 101.019,146.148 102.019,148.982 102.5,152C 103.759,152.982 105.092,153.315 106.5,153C 103.386,150.601 103.053,148.101 105.5,145.5C 106.183,145.863 106.85,146.196 107.5,146.5C 105.15,149.3 106.15,150.633 110.5,150.5C 112.877,151.887 115.543,152.721 118.5,153C 124.801,156.991 125.134,161.491 119.5,166.5C 107.776,174.933 98.6096,185.599 92,198.5C 90.0329,203.37 88.5329,208.37 87.5,213.5C 95.683,212.526 103.683,211.193 111.5,209.5C 112.675,209.719 113.675,209.386 114.5,208.5C 112.463,199.945 111.629,191.278 112,182.5C 113.176,180.804 114.343,179.138 115.5,177.5C 127.188,176.031 138.855,176.198 150.5,178C 153.902,180.188 157.568,181.688 161.5,182.5C 161.5,183.167 161.833,183.5 162.5,183.5C 163.982,185.915 165.982,186.582 168.5,185.5C 173.604,178.95 178.937,172.617 184.5,166.5C 189.268,163.58 193.934,160.414 198.5,157C 201.792,156.996 204.458,155.83 206.5,153.5C 212.946,152.213 219.279,151.213 225.5,150.5C 231.756,151.712 237.256,154.378 242,158.5C 246.67,155.417 251.504,152.751 256.5,150.5C 263.889,151.073 271.222,152.073 278.5,153.5C 292.6,160.595 304.266,170.595 313.5,183.5C 311.097,183.393 309.264,184.393 308,186.5C 307.667,186.167 307.333,185.833 307,185.5C 305.441,187.217 304.608,189.217 304.5,191.5C 295.666,178.183 283.666,168.683 268.5,163C 261.675,161.201 255.842,162.701 251,167.5C 249.046,172.971 248.046,178.638 248,184.5C 245.922,188.97 242.589,190.304 238,188.5C 237.333,187.167 236.667,185.833 236,184.5C 236.986,164.739 228.153,158.239 209.5,165C 184,178.798 170.167,200.298 168,229.5C 166.396,242.003 168.062,254.003 173,265.5C 176.075,272.656 179.908,279.323 184.5,285.5C 189.056,275.387 193.89,265.387 199,255.5C 202.182,251.943 205.682,251.609 209.5,254.5C 210.641,256.421 210.808,258.421 210,260.5C 202.496,273.349 197.163,287.016 194,301.5C 193.501,305.152 193.335,308.818 193.5,312.5C 199.082,313.979 204.748,314.979 210.5,315.5C 210.719,316.675 210.386,317.675 209.5,318.5C 203.752,317.418 198.086,316.085 192.5,314.5C 192.655,317.609 193.322,320.609 194.5,323.5C 200.119,324.696 205.785,325.696 211.5,326.5C 205.528,327.306 199.528,327.306 193.5,326.5C 194.668,329.677 196.001,332.844 197.5,336C 202.222,335.985 206.889,336.152 211.5,336.5C 195.967,339.104 196.3,342.104 212.5,345.5C 221.477,344.725 228.977,341.059 235,334.5C 238.011,322.019 233.178,314.852 220.5,313C 217.71,310.79 216.877,307.956 218,304.5C 224.999,292.253 235.499,287.42 249.5,290C 257.991,293.196 263.658,299.029 266.5,307.5C 266.594,309.912 265.594,311.745 263.5,313C 251.075,315.086 246.241,322.253 249,334.5C 253.22,339.895 258.72,342.895 265.5,343.5C 269.527,345.961 273.527,345.961 277.5,343.5C 288.301,339.565 287.968,337.232 276.5,336.5C 276.281,335.325 276.614,334.325 277.5,333.5C 280.991,335.094 284.658,335.761 288.5,335.5C 288.263,334.209 288.596,333.209 289.5,332.5C 290.072,335.085 290.239,337.751 290,340.5C 291.205,341.071 292.372,341.738 293.5,342.5C 291.96,343.532 291.46,344.865 292,346.5C 292.779,343.903 293.279,343.903 293.5,346.5C 291.41,350.859 290.243,355.526 290,360.5C 287.467,365.727 284.301,370.561 280.5,375C 276.447,378.354 272.113,381.187 267.5,383.5C 264.848,383.41 262.515,384.076 260.5,385.5C 249.179,386.989 237.846,387.322 226.5,386.5C 221.588,384.723 216.588,382.89 211.5,381C 207.91,378.386 204.576,375.552 201.5,372.5C 201.158,371.662 200.492,371.328 199.5,371.5C 198.293,368.394 196.793,365.394 195,362.5C 194.254,358.104 193.254,353.77 192,349.5C 190.961,348.29 189.794,347.29 188.5,346.5C 187.92,344.251 186.587,342.585 184.5,341.5C 184.167,341.5 183.833,341.5 183.5,341.5C 183.167,340.833 182.833,340.167 182.5,339.5C 183.289,339.217 183.956,338.717 184.5,338C 182.892,333.595 181.226,329.428 179.5,325.5C 179.557,324.391 179.89,323.391 180.5,322.5C 180.823,318.774 180.489,315.107 179.5,311.5C 178.817,311.137 178.15,310.804 177.5,310.5C 177.5,309.833 177.5,309.167 177.5,308.5C 178.586,308.38 179.253,307.713 179.5,306.5C 176.235,295.299 170.902,285.299 163.5,276.5C 156.138,259.976 153.471,242.643 155.5,224.5C 157.001,217.251 158.668,209.918 160.5,202.5C 134.624,213.211 114.457,230.544 100,254.5C 94.0417,268.502 89.875,283.002 87.5,298C 91.1474,298.047 94.6474,297.214 98,295.5C 101.45,295.716 103.784,297.382 105,300.5C 105.633,306.161 106.133,311.828 106.5,317.5C 106.833,318.167 107.167,318.833 107.5,319.5C 108.272,327.207 109.438,334.874 111,342.5C 111.566,344.723 112.4,346.723 113.5,348.5C 113.205,350.735 113.539,352.735 114.5,354.5C 115.16,362.457 117.493,369.791 121.5,376.5C 121.447,379.061 122.447,381.061 124.5,382.5C 125.425,381.643 126.092,380.643 126.5,379.5C 128.756,375.903 131.423,372.569 134.5,369.5C 136.677,369.586 138.677,370.253 140.5,371.5C 142.48,375.137 145.146,378.137 148.5,380.5C 150.087,383.268 151.92,385.935 154,388.5C 162.185,397.359 171.519,404.692 182,410.5C 182.608,408.846 183.108,407.179 183.5,405.5C 184.565,401.837 186.565,398.67 189.5,396C 191.5,395.333 193.5,395.333 195.5,396C 199.705,399.929 204.372,403.096 209.5,405.5C 217.814,411.614 227.148,415.614 237.5,417.5C 239.438,419.163 241.772,419.829 244.5,419.5C 244.423,420.75 243.756,421.583 242.5,422C 243.167,423 243.833,424 244.5,425C 248.751,426.195 253.085,426.695 257.5,426.5C 257.5,427.167 257.5,427.833 257.5,428.5C 257.167,428.5 256.833,428.5 256.5,428.5C 254.485,427.147 252.818,427.647 251.5,430C 244.107,430.954 236.94,430.121 230,427.5C 229.235,427.57 228.735,427.903 228.5,428.5C 227.508,428.672 226.842,428.338 226.5,427.5C 223.659,426.331 220.659,425.331 217.5,424.5C 214.844,421.711 211.511,420.044 207.5,419.5C 203.68,416.99 199.846,414.324 196,411.5C 195.209,412.745 194.709,414.078 194.5,415.5C 192.874,417.942 191.541,420.609 190.5,423.5C 189.092,424.061 187.592,424.395 186,424.5C 183.119,423.972 180.285,423.306 177.5,422.5C 174.106,419.779 170.439,417.446 166.5,415.5C 166.027,414.094 165.027,413.427 163.5,413.5C 160.71,409.372 157.043,406.372 152.5,404.5C 147.681,398.408 142.348,392.741 136.5,387.5C 135.575,388.357 134.908,389.357 134.5,390.5C 131.815,393.19 129.482,396.19 127.5,399.5C 124.43,399.632 121.43,399.299 118.5,398.5C 117.094,398.027 116.427,397.027 116.5,395.5C 115.868,391.569 114.201,388.235 111.5,385.5C 111.88,383.302 111.213,381.635 109.5,380.5C 109.293,377.759 108.293,375.426 106.5,373.5C 105.939,368.824 104.606,364.491 102.5,360.5C 102.876,355.739 101.876,351.405 99.5,347.5C 99.8764,342.739 98.8764,338.405 96.5,334.5C 95.8902,333.609 95.5569,332.609 95.5,331.5C 96.1471,330.726 96.4805,329.726 96.5,328.5C 95.0419,322.586 94.3752,316.586 94.5,310.5C 90.7759,310.863 87.1093,311.529 83.5,312.5C 80.664,312.41 77.9973,311.743 75.5,310.5C 74.9084,307.873 74.5751,305.206 74.5,302.5C 74.298,300.05 74.6314,297.717 75.5,295.5C 77.5892,287.356 79.4225,279.023 81,270.5C 83.4705,265.278 85.6372,259.945 87.5,254.5C 87.3764,253.893 87.0431,253.56 86.5,253.5C 86.5,252.833 86.8333,252.5 87.5,252.5C 89.9236,249.992 91.5903,246.992 92.5,243.5C 96.3032,238.851 99.9699,234.018 103.5,229C 103.272,228.601 102.938,228.435 102.5,228.5C 102.5,227.833 102.833,227.5 103.5,227.5C 105.903,226.165 107.236,224.498 107.5,222.5C 103.212,223.411 98.8786,224.078 94.5,224.5C 88.8634,225.829 83.1967,225.829 77.5,224.5C 75.982,220.57 74.982,216.57 74.5,212.5C 74.8333,211.833 75.1667,211.167 75.5,210.5C 77.0114,207.456 77.678,204.122 77.5,200.5C 79.4414,198.684 80.1081,196.684 79.5,194.5C 79.3284,193.508 79.6618,192.842 80.5,192.5C 80.4346,192.938 80.6012,193.272 81,193.5C 83.7796,188.938 86.2796,184.272 88.5,179.5C 92.1257,176.905 94.7924,173.572 96.5,169.5C 96.5,168.167 97.1667,167.5 98.5,167.5C 100.479,166.188 102.145,164.521 103.5,162.5C 98.5211,160.506 93.5211,158.506 88.5,156.5C 88.67,155.178 88.3366,154.011 87.5,153C 89.8969,147.775 93.2303,143.275 97.5,139.5 Z"/></g>
<g><path style="opacity:1" fill="#22a3df" d="M 150.5,114.5 C 156.253,115.349 158.086,118.683 156,124.5C 154.256,125.649 154.089,126.983 155.5,128.5C 153.504,134.166 149.838,135.999 144.5,134C 145.711,133.107 145.711,132.274 144.5,131.5C 142.999,132.752 141.332,133.752 139.5,134.5C 140.09,135.799 141.09,136.632 142.5,137C 147.707,137.759 152.874,137.592 158,136.5C 159.28,136.613 160.113,137.28 160.5,138.5C 156.878,139.325 153.211,139.825 149.5,140C 146.86,140.896 144.693,142.396 143,144.5C 142.405,143.101 142.572,141.768 143.5,140.5C 141.713,139.684 140.046,138.684 138.5,137.5C 135.591,139.932 132.591,139.932 129.5,137.5C 128.692,137.808 128.025,138.308 127.5,139C 128.938,139.219 130.271,139.719 131.5,140.5C 130.833,140.833 130.167,141.167 129.5,141.5C 127.199,140.604 124.866,140.438 122.5,141C 123.711,142.113 123.711,143.28 122.5,144.5C 124.5,145.167 126.5,145.833 128.5,146.5C 124.35,148.256 123.684,150.756 126.5,154C 124.946,158.216 125.279,162.216 127.5,166C 127.167,166.5 126.833,167 126.5,167.5C 125.672,166.585 124.672,165.919 123.5,165.5C 121.103,167.902 118.436,169.902 115.5,171.5C 116.833,169.833 118.167,168.167 119.5,166.5C 125.134,161.491 124.801,156.991 118.5,153C 115.543,152.721 112.877,151.887 110.5,150.5C 110.461,149.417 110.127,148.417 109.5,147.5C 114.329,142.778 119.996,139.611 126.5,138C 130.825,135.85 134.492,133.683 137.5,131.5C 142.848,130.177 148.014,128.177 153,125.5C 154.555,121.379 153.722,117.713 150.5,114.5 Z"/></g>
<g><path style="opacity:1" fill="#2ea2d5" d="M 270.5,150.5 C 265.679,149.403 261.013,149.403 256.5,150.5C 255.883,150.389 255.383,150.056 255,149.5C 250.687,152.323 246.02,154.323 241,155.5C 230.227,148.418 218.727,147.751 206.5,153.5C 204.458,155.83 201.792,156.996 198.5,157C 193.934,160.414 189.268,163.58 184.5,166.5C 184.5,164.833 184.5,163.167 184.5,161.5C 187.01,160.217 189.677,159.217 192.5,158.5C 191.948,156.669 191.948,155.003 192.5,153.5C 194.071,154.309 195.738,154.643 197.5,154.5C 197.5,153.5 197.5,152.5 197.5,151.5C 206.965,150.65 216.298,149.317 225.5,147.5C 229.749,148.603 233.916,149.937 238,151.5C 239,150.833 240,150.167 241,149.5C 242.333,150.167 243.667,150.833 245,151.5C 249.016,148.931 253.516,147.764 258.5,148C 260.269,146.686 262.269,145.853 264.5,145.5C 266.519,147.19 268.519,148.856 270.5,150.5 Z"/></g>
<g><path style="opacity:1" fill="#81b6cb" d="M 256.5,150.5 C 251.504,152.751 246.67,155.417 242,158.5C 237.256,154.378 231.756,151.712 225.5,150.5C 219.279,151.213 212.946,152.213 206.5,153.5C 218.727,147.751 230.227,148.418 241,155.5C 246.02,154.323 250.687,152.323 255,149.5C 255.383,150.056 255.883,150.389 256.5,150.5 Z"/></g>
<g><path style="opacity:0.68" fill="#818181" d="M 383.5,135.5 C 390.37,139.368 395.036,145.035 397.5,152.5C 397.48,153.726 397.147,154.726 396.5,155.5C 396.702,153.011 396.202,150.677 395,148.5C 391.33,143.998 387.497,139.665 383.5,135.5 Z"/></g>
<g><path style="opacity:1" fill="#43a4cd" d="M 367.5,143.5 C 369.216,143.629 370.883,143.962 372.5,144.5C 373.492,144.328 374.158,144.662 374.5,145.5C 374.5,147.167 374.5,148.833 374.5,150.5C 371.797,151.963 368.797,152.796 365.5,153C 361.335,154.483 359.835,157.316 361,161.5C 362.802,162.789 363.969,164.456 364.5,166.5C 362.418,166.528 360.584,165.861 359,164.5C 357.632,161.262 357.299,157.928 358,154.5C 361.865,150.156 366.698,148.489 372.5,149.5C 372.649,148.448 372.483,147.448 372,146.5C 370.348,145.601 368.848,144.601 367.5,143.5 Z"/></g>
<g><path style="opacity:0.776" fill="#a0a0a0" d="M 88.5,156.5 C 93.5211,158.506 98.5211,160.506 103.5,162.5C 102.145,164.521 100.479,166.188 98.5,167.5C 99.6298,165.685 100.296,163.685 100.5,161.5C 95.7679,161.373 91.7679,159.707 88.5,156.5 Z"/></g>
<g><path style="opacity:0.475" fill="#969696" d="M 396.5,155.5 C 396.586,156.496 396.252,157.329 395.5,158C 391.991,159.759 388.325,160.926 384.5,161.5C 384.343,162.873 384.51,164.207 385,165.5C 393.84,174.515 400.673,184.848 405.5,196.5C 405.5,197.167 405.167,197.5 404.5,197.5C 398.743,184.328 390.743,172.661 380.5,162.5C 385.902,160.161 391.235,157.827 396.5,155.5 Z"/></g>
<g><path style="opacity:1" fill="#fbfbfb" d="M 304.5,191.5 C 317.515,215.504 319.682,240.504 311,266.5C 307.669,273.166 303.836,279.499 299.5,285.5C 296.755,278.757 293.922,272.09 291,265.5C 288.667,261.833 286.333,258.167 284,254.5C 278.839,251.057 275.339,252.224 273.5,258C 281.126,272.765 286.959,288.265 291,304.5C 291.497,306.81 291.663,309.143 291.5,311.5C 285.625,312.761 279.792,314.094 274,315.5C 273.833,315.833 273.667,316.167 273.5,316.5C 274.333,316.833 275.167,317.167 276,317.5C 280.34,315.79 284.84,314.79 289.5,314.5C 290.497,314.47 291.164,314.97 291.5,316C 290.678,318.434 290.344,320.934 290.5,323.5C 285.305,323.179 280.305,323.513 275.5,324.5C 274.957,324.56 274.624,324.893 274.5,325.5C 279.792,326.495 285.125,326.828 290.5,326.5C 290.167,328.5 289.833,330.5 289.5,332.5C 288.596,333.209 288.263,334.209 288.5,335.5C 284.658,335.761 280.991,335.094 277.5,333.5C 276.614,334.325 276.281,335.325 276.5,336.5C 287.968,337.232 288.301,339.565 277.5,343.5C 273.601,344.366 269.601,344.366 265.5,343.5C 258.72,342.895 253.22,339.895 249,334.5C 246.241,322.253 251.075,315.086 263.5,313C 265.594,311.745 266.594,309.912 266.5,307.5C 263.658,299.029 257.991,293.196 249.5,290C 235.499,287.42 224.999,292.253 218,304.5C 216.877,307.956 217.71,310.79 220.5,313C 233.178,314.852 238.011,322.019 235,334.5C 228.977,341.059 221.477,344.725 212.5,345.5C 196.3,342.104 195.967,339.104 211.5,336.5C 206.889,336.152 202.222,335.985 197.5,336C 196.001,332.844 194.668,329.677 193.5,326.5C 199.528,327.306 205.528,327.306 211.5,326.5C 205.785,325.696 200.119,324.696 194.5,323.5C 193.322,320.609 192.655,317.609 192.5,314.5C 198.086,316.085 203.752,317.418 209.5,318.5C 210.386,317.675 210.719,316.675 210.5,315.5C 204.748,314.979 199.082,313.979 193.5,312.5C 193.335,308.818 193.501,305.152 194,301.5C 197.163,287.016 202.496,273.349 210,260.5C 210.808,258.421 210.641,256.421 209.5,254.5C 205.682,251.609 202.182,251.943 199,255.5C 193.89,265.387 189.056,275.387 184.5,285.5C 179.908,279.323 176.075,272.656 173,265.5C 168.062,254.003 166.396,242.003 168,229.5C 170.167,200.298 184,178.798 209.5,165C 228.153,158.239 236.986,164.739 236,184.5C 236.667,185.833 237.333,187.167 238,188.5C 242.589,190.304 245.922,188.97 248,184.5C 248.046,178.638 249.046,172.971 251,167.5C 255.842,162.701 261.675,161.201 268.5,163C 283.666,168.683 295.666,178.183 304.5,191.5 Z"/></g>
<g><path style="opacity:1" fill="#71b3ce" d="M 278.5,153.5 C 283.178,155.288 287.845,157.288 292.5,159.5C 296.454,162.286 299.954,165.619 303,169.5C 304.493,167.44 306.326,167.107 308.5,168.5C 307.833,169.833 307.167,171.167 306.5,172.5C 309.907,176.318 313.074,180.318 316,184.5C 319.296,183.344 322.463,182.011 325.5,180.5C 323.159,182.829 320.492,184.829 317.5,186.5C 315.84,185.828 314.507,184.828 313.5,183.5C 304.266,170.595 292.6,160.595 278.5,153.5 Z"/></g>
<g><path style="opacity:1" fill="#3b9fcd" d="M 367.5,171.5 C 370.577,172.373 372.91,174.207 374.5,177C 373.833,177.333 373.167,177.667 372.5,178C 373.833,178.333 375.167,178.667 376.5,179C 377.756,181.446 379.423,183.946 381.5,186.5C 379.422,185.094 377.255,183.761 375,182.5C 374.333,190.167 374.333,197.833 375,205.5C 376.102,206.949 377.269,208.282 378.5,209.5C 376.518,209.005 374.518,208.505 372.5,208C 371.978,207.439 371.645,206.772 371.5,206C 373.154,198.39 373.487,190.89 372.5,183.5C 370.722,178.294 367.055,176.128 361.5,177C 349.193,175.602 337.193,176.769 325.5,180.5C 326.567,178.121 325.567,177.121 322.5,177.5C 322.5,176.5 322.5,175.5 322.5,174.5C 328.842,174.666 335.175,174.5 341.5,174C 342.328,173.085 343.328,172.419 344.5,172C 349.057,171.853 353.391,171.019 357.5,169.5C 357.722,173.278 359.722,175.278 363.5,175.5C 367.482,176.194 368.815,174.861 367.5,171.5 Z"/></g>
<g><path style="opacity:1" fill="#5fa7c8" d="M 161.5,182.5 C 157.568,181.688 153.902,180.188 150.5,178C 138.855,176.198 127.188,176.031 115.5,177.5C 115.611,176.883 115.944,176.383 116.5,176C 128.496,174.095 140.496,174.095 152.5,176C 153.973,176.71 154.64,177.876 154.5,179.5C 157.346,179.552 159.68,180.552 161.5,182.5 Z"/></g>
<g><path style="opacity:1" fill="#77b6ce" d="M 184.5,166.5 C 178.937,172.617 173.604,178.95 168.5,185.5C 165.982,186.582 163.982,185.915 162.5,183.5C 164.117,184.038 165.784,184.371 167.5,184.5C 167.5,183.5 167.5,182.5 167.5,181.5C 169.39,181.703 170.89,181.037 172,179.5C 172.615,177.884 173.615,176.551 175,175.5C 175.49,174.207 175.657,172.873 175.5,171.5C 176.552,171.649 177.552,171.483 178.5,171C 178.926,167.408 180.926,165.908 184.5,166.5 Z"/></g>
<g><path style="opacity:1" fill="#060708" d="M 286.5,71.5 C 291.367,78.7593 291.7,86.426 287.5,94.5C 288.325,95.3857 289.325,95.719 290.5,95.5C 307.596,93.9511 324.596,94.6178 341.5,97.5C 345.61,99.6007 349.944,101.434 354.5,103C 359.256,105.339 360.423,108.839 358,113.5C 355.5,115.333 353,117.167 350.5,119C 360.327,123.164 369.827,127.997 379,133.5C 379.399,133.272 379.565,132.938 379.5,132.5C 380.167,132.5 380.5,132.833 380.5,133.5C 380.973,134.906 381.973,135.573 383.5,135.5C 387.497,139.665 391.33,143.998 395,148.5C 396.202,150.677 396.702,153.011 396.5,155.5C 391.235,157.827 385.902,160.161 380.5,162.5C 390.743,172.661 398.743,184.328 404.5,197.5C 406.82,204.785 408.486,212.118 409.5,219.5C 410.833,220.5 410.833,221.5 409.5,222.5C 407.646,224.596 405.313,225.929 402.5,226.5C 394.144,225.165 385.811,223.832 377.5,222.5C 376.761,222.369 376.094,222.536 375.5,223C 388.581,237.324 397.915,253.824 403.5,272.5C 405.2,279.704 406.367,287.037 407,294.5C 407.099,296.653 407.933,298.319 409.5,299.5C 409.696,304.033 408.696,308.199 406.5,312C 403.167,312.667 399.833,312.667 396.5,312C 394.35,310.589 392.016,309.755 389.5,309.5C 388.78,315.138 388.447,320.804 388.5,326.5C 385.842,339.4 383.175,352.4 380.5,365.5C 377.326,370.687 375.326,376.353 374.5,382.5C 371.104,386.305 368.438,390.639 366.5,395.5C 362.094,402.128 357.594,402.128 353,395.5C 351.649,391.48 349.149,388.98 345.5,388C 341.914,393.591 337.58,398.591 332.5,403C 326.877,406.955 321.543,411.288 316.5,416C 311.236,419.457 305.902,422.624 300.5,425.5C 300.167,425.5 299.833,425.5 299.5,425.5C 297.883,424.962 296.216,424.629 294.5,424.5C 292.505,420.19 290.505,415.857 288.5,411.5C 283.429,414.026 278.762,417.026 274.5,420.5C 268.94,422.779 263.274,424.779 257.5,426.5C 253.085,426.695 248.751,426.195 244.5,425C 243.833,424 243.167,423 242.5,422C 243.756,421.583 244.423,420.75 244.5,419.5C 245.167,418.833 245.833,418.167 246.5,417.5C 253.171,416.443 259.505,414.276 265.5,411C 274.269,407.296 281.936,402.129 288.5,395.5C 292.155,394.925 295.155,395.925 297.5,398.5C 298.588,402.429 300.254,406.096 302.5,409.5C 307.255,407.802 311.255,405.135 314.5,401.5C 319.132,398.202 323.466,394.536 327.5,390.5C 330.796,386.702 334.296,383.036 338,379.5C 339.094,377.922 339.928,376.255 340.5,374.5C 342.779,371.558 345.779,369.891 349.5,369.5C 353.067,373.623 356.4,377.956 359.5,382.5C 361.833,381.168 363.166,379.168 363.5,376.5C 366.784,366.65 369.451,356.65 371.5,346.5C 371.5,346.167 371.5,345.833 371.5,345.5C 372.776,343.438 373.61,341.104 374,338.5C 376.359,325.214 378.359,311.881 380,298.5C 381.995,296.253 384.495,295.253 387.5,295.5C 389.966,298.031 392.966,298.864 396.5,298C 394.667,283.005 390.333,268.838 383.5,255.5C 379.455,246.096 373.455,238.096 365.5,231.5C 365.5,230.833 365.167,230.5 364.5,230.5C 364.141,228.629 363.141,227.129 361.5,226C 349.843,217.168 337.51,209.334 324.5,202.5C 324.167,203.167 323.833,203.833 323.5,204.5C 325.589,211.366 326.922,218.366 327.5,225.5C 327.5,232.833 327.5,240.167 327.5,247.5C 327.5,250.167 327.5,252.833 327.5,255.5C 326.049,259.368 324.715,263.368 323.5,267.5C 317.407,280.021 311.073,292.354 304.5,304.5C 303.876,304.917 303.543,305.584 303.5,306.5C 304.225,307.867 304.892,309.2 305.5,310.5C 304.508,310.328 303.842,310.662 303.5,311.5C 302.809,315.899 302.142,320.399 301.5,325C 302.056,325.383 302.389,325.883 302.5,326.5C 302.348,330.262 301.681,333.928 300.5,337.5C 300.855,338.522 301.522,339.189 302.5,339.5C 303.506,340.396 303.506,341.062 302.5,341.5C 301.5,341.5 300.5,341.5 299.5,341.5C 296.885,342.45 294.885,344.117 293.5,346.5C 293.279,343.903 292.779,343.903 292,346.5C 291.46,344.865 291.96,343.532 293.5,342.5C 292.372,341.738 291.205,341.071 290,340.5C 290.239,337.751 290.072,335.085 289.5,332.5C 289.833,330.5 290.167,328.5 290.5,326.5C 285.125,326.828 279.792,326.495 274.5,325.5C 274.624,324.893 274.957,324.56 275.5,324.5C 280.833,324.5 286.167,324.5 291.5,324.5C 291.724,320.821 292.058,317.154 292.5,313.5C 291.209,313.263 290.209,313.596 289.5,314.5C 284.84,314.79 280.34,315.79 276,317.5C 275.167,317.167 274.333,316.833 273.5,316.5C 273.667,316.167 273.833,315.833 274,315.5C 279.792,314.094 285.625,312.761 291.5,311.5C 291.663,309.143 291.497,306.81 291,304.5C 286.959,288.265 281.126,272.765 273.5,258C 275.339,252.224 278.839,251.057 284,254.5C 286.333,258.167 288.667,261.833 291,265.5C 293.922,272.09 296.755,278.757 299.5,285.5C 303.836,279.499 307.669,273.166 311,266.5C 319.682,240.504 317.515,215.504 304.5,191.5C 304.608,189.217 305.441,187.217 307,185.5C 307.333,185.833 307.667,186.167 308,186.5C 309.264,184.393 311.097,183.393 313.5,183.5C 314.507,184.828 315.84,185.828 317.5,186.5C 320.492,184.829 323.159,182.829 325.5,180.5C 337.193,176.769 349.193,175.602 361.5,177C 367.055,176.128 370.722,178.294 372.5,183.5C 372.26,191.935 371.26,200.268 369.5,208.5C 374.656,210.224 379.989,211.224 385.5,211.5C 387.838,213.04 390.505,213.706 393.5,213.5C 394.5,213.5 395.5,213.5 396.5,213.5C 394.472,202.44 389.972,192.44 383,183.5C 379.131,179.966 375.631,176.133 372.5,172C 369.935,169.92 367.268,168.087 364.5,166.5C 363.969,164.456 362.802,162.789 361,161.5C 359.835,157.316 361.335,154.483 365.5,153C 368.797,152.796 371.797,151.963 374.5,150.5C 379.324,149.521 379.324,147.854 374.5,145.5C 374.158,144.662 373.492,144.328 372.5,144.5C 365.447,138.142 357.114,134.142 347.5,132.5C 346.4,131.442 345.066,130.608 343.5,130C 339.16,128.828 334.827,127.662 330.5,126.5C 329.565,123.887 329.398,121.221 330,118.5C 332.191,117.167 334.024,115.5 335.5,113.5C 340.969,112.084 341.302,110.75 336.5,109.5C 318.719,105.845 300.719,105.511 282.5,108.5C 278.904,108.972 275.904,107.972 273.5,105.5C 273.508,102.455 273.841,99.4552 274.5,96.5C 275.426,93.4405 276.426,90.2738 277.5,87C 277.167,86.5 276.833,86 276.5,85.5C 261.568,90.2589 251.568,99.9255 246.5,114.5C 243.813,114.664 241.146,114.497 238.5,114C 236.583,110.693 234.583,107.527 232.5,104.5C 226.398,94.7708 217.731,88.4374 206.5,85.5C 206.595,87.7857 207.262,89.7857 208.5,91.5C 208.337,93.8568 208.503,96.1902 209,98.5C 209.383,99.056 209.883,99.3893 210.5,99.5C 211.155,103.355 209.821,106.188 206.5,108C 191.545,106.78 176.545,106.446 161.5,107C 156.075,107.676 150.741,108.676 145.5,110C 144.289,110.893 144.289,111.726 145.5,112.5C 147.075,113.456 148.742,114.123 150.5,114.5C 153.722,117.713 154.555,121.379 153,125.5C 148.014,128.177 142.848,130.177 137.5,131.5C 126.401,134.383 116.401,139.383 107.5,146.5C 106.85,146.196 106.183,145.863 105.5,145.5C 103.053,148.101 103.386,150.601 106.5,153C 105.092,153.315 103.759,152.982 102.5,152C 102.019,148.982 101.019,146.148 99.5,143.5C 99.7093,142.914 100.043,142.414 100.5,142C 98.8807,141.764 97.8807,140.931 97.5,139.5C 103.26,134.807 109.26,130.474 115.5,126.5C 121.593,124.289 127.593,121.789 133.5,119C 131.093,116.715 128.593,114.549 126,112.5C 125.132,108.328 126.632,105.162 130.5,103C 138.8,99.5298 147.466,97.1965 156.5,96C 169.616,95.5636 182.616,95.3969 195.5,95.5C 195.833,94.8333 196.167,94.1667 196.5,93.5C 195.436,88.6805 194.436,83.8471 193.5,79C 194.352,75.6327 196.519,73.4661 200,72.5C 200.5,73 201,73.5 201.5,74C 205.5,74.3333 209.5,74.6667 213.5,75C 217.239,77.2505 221.239,78.7505 225.5,79.5C 228.529,83.8503 232.529,87.1836 237.5,89.5C 238.33,91.8236 239.663,93.8236 241.5,95.5C 242.855,94.8118 243.855,93.8118 244.5,92.5C 249.546,87.7885 254.879,83.2885 260.5,79C 269.152,76.1733 277.818,73.6733 286.5,71.5 Z"/></g>
<g><path style="opacity:1" fill="#85bed4" d="M 256.5,150.5 C 261.013,149.403 265.679,149.403 270.5,150.5C 273.163,151.752 275.83,152.752 278.5,153.5C 271.222,152.073 263.889,151.073 256.5,150.5 Z"/></g>
<g><path style="opacity:1" fill="#c2dbe5" d="M 374.5,145.5 C 379.324,147.854 379.324,149.521 374.5,150.5C 374.5,148.833 374.5,147.167 374.5,145.5 Z"/></g>
<g><path style="opacity:1" fill="#8fc4d9" d="M 137.5,131.5 C 134.492,133.683 130.825,135.85 126.5,138C 119.996,139.611 114.329,142.778 109.5,147.5C 110.127,148.417 110.461,149.417 110.5,150.5C 106.15,150.633 105.15,149.3 107.5,146.5C 116.401,139.383 126.401,134.383 137.5,131.5 Z"/></g>
<g><path style="opacity:1" fill="#47a6cd" d="M 330.5,126.5 C 334.827,127.662 339.16,128.828 343.5,130C 345.066,130.608 346.4,131.442 347.5,132.5C 352.358,134.74 357.358,136.906 362.5,139C 364.398,140.417 366.064,141.917 367.5,143.5C 357.993,138.915 348.326,134.582 338.5,130.5C 333.872,133.52 331.205,132.187 330.5,126.5 Z"/></g>
<g><path style="opacity:1" fill="#97c8db" d="M 347.5,132.5 C 357.114,134.142 365.447,138.142 372.5,144.5C 370.883,143.962 369.216,143.629 367.5,143.5C 366.064,141.917 364.398,140.417 362.5,139C 357.358,136.906 352.358,134.74 347.5,132.5 Z"/></g>
<g><path style="opacity:1" fill="#64adcb" d="M 273.5,105.5 C 275.904,107.972 278.904,108.972 282.5,108.5C 300.719,105.511 318.719,105.845 336.5,109.5C 335.448,109.351 334.448,109.517 333.5,110C 335.939,110.533 336.605,111.7 335.5,113.5C 334.024,115.5 332.191,117.167 330,118.5C 329.398,121.221 329.565,123.887 330.5,126.5C 327.988,124.763 326.988,122.263 327.5,119C 326.791,115.065 328.124,112.065 331.5,110C 321.646,110.107 311.98,109.274 302.5,107.5C 294.844,108.439 287.177,109.439 279.5,110.5C 276.111,110.361 274.111,108.694 273.5,105.5 Z"/></g>
<g><path style="opacity:1" fill="#aec6c8" d="M 336.5,109.5 C 341.302,110.75 340.969,112.084 335.5,113.5C 336.605,111.7 335.939,110.533 333.5,110C 334.448,109.517 335.448,109.351 336.5,109.5 Z"/></g>
<g><path style="opacity:1" fill="#2f9dcb" d="M 212.5,89.5 C 210.859,91.2029 209.859,93.3695 209.5,96C 210.025,96.6924 210.692,97.1924 211.5,97.5C 213.288,102.189 212.621,106.356 209.5,110C 191.838,110.011 174.172,109.845 156.5,109.5C 162.601,108.028 168.935,107.361 175.5,107.5C 186.479,108.664 197.479,109.164 208.5,109C 211.387,106.152 212.054,102.985 210.5,99.5C 209.883,99.3893 209.383,99.056 209,98.5C 208.503,96.1902 208.337,93.8568 208.5,91.5C 208.5,90.5 208.5,89.5 208.5,88.5C 210.099,88.2322 211.432,88.5655 212.5,89.5 Z"/></g>
<g><path style="opacity:1" fill="#81b5c6" d="M 210.5,99.5 C 212.054,102.985 211.387,106.152 208.5,109C 197.479,109.164 186.479,108.664 175.5,107.5C 168.935,107.361 162.601,108.028 156.5,109.5C 153.606,109.556 150.939,110.39 148.5,112C 149.381,112.708 150.047,113.542 150.5,114.5C 148.742,114.123 147.075,113.456 145.5,112.5C 144.289,111.726 144.289,110.893 145.5,110C 150.741,108.676 156.075,107.676 161.5,107C 176.545,106.446 191.545,106.78 206.5,108C 209.821,106.188 211.155,103.355 210.5,99.5 Z"/></g>
<g><path style="opacity:1" fill="#60b0d2" d="M 232.5,104.5 C 227.668,105.862 225.168,103.862 225,98.5C 224,97.8333 223,97.1667 222,96.5C 220.989,97.3366 219.822,97.67 218.5,97.5C 219.861,92.2309 217.861,89.5642 212.5,89.5C 211.432,88.5655 210.099,88.2322 208.5,88.5C 208.5,89.5 208.5,90.5 208.5,91.5C 207.262,89.7857 206.595,87.7857 206.5,85.5C 217.731,88.4374 226.398,94.7708 232.5,104.5 Z"/></g>
<g><path style="opacity:0.804" fill="#8d8d8d" d="M 237.5,89.5 C 239.145,90.4787 240.479,91.812 241.5,93.5C 242.417,92.8728 243.417,92.5394 244.5,92.5C 243.855,93.8118 242.855,94.8118 241.5,95.5C 239.663,93.8236 238.33,91.8236 237.5,89.5 Z"/></g>
<g><path style="opacity:1" fill="#74b8d4" d="M 274.5,96.5 C 274.232,93.8806 274.565,91.3806 275.5,89C 275,88.5 274.5,88 274,87.5C 271.195,90.5708 267.862,92.9041 264,94.5C 262.561,96.2746 261.561,98.2746 261,100.5C 259.732,100.384 258.398,100.051 257,99.5C 252.998,104.179 249.498,109.179 246.5,114.5C 251.568,99.9255 261.568,90.2589 276.5,85.5C 276.833,86 277.167,86.5 277.5,87C 276.426,90.2738 275.426,93.4405 274.5,96.5 Z"/></g>
<g><path style="opacity:0.667" fill="#7c7c7c" d="M 225.5,79.5 C 229.861,82.5392 233.861,85.8725 237.5,89.5C 232.529,87.1836 228.529,83.8503 225.5,79.5 Z"/></g>
<g><path style="opacity:1" fill="#a6a6a6" d="M 96.5,169.5 C 94.7924,173.572 92.1257,176.905 88.5,179.5C 90.6885,175.793 93.3552,172.46 96.5,169.5 Z"/></g>
<g><path style="opacity:1" fill="#45a9d4" d="M 115.5,171.5 C 115.649,172.552 115.483,173.552 115,174.5C 110.185,177.364 110.351,178.364 115.5,177.5C 114.343,179.138 113.176,180.804 112,182.5C 111.629,191.278 112.463,199.945 114.5,208.5C 113.675,209.386 112.675,209.719 111.5,209.5C 107.131,209.467 102.798,209.8 98.5,210.5C 102.11,208.426 106.11,207.259 110.5,207C 110.219,199.318 109.719,191.484 109,183.5C 107.817,182.269 106.651,182.269 105.5,183.5C 102.906,185.725 101.24,188.391 100.5,191.5C 99.3789,189.911 99.5456,188.244 101,186.5C 105.337,180.997 110.17,175.997 115.5,171.5 Z"/></g>
<g><path style="opacity:1" fill="#87bdd1" d="M 119.5,166.5 C 118.167,168.167 116.833,169.833 115.5,171.5C 110.17,175.997 105.337,180.997 101,186.5C 99.5456,188.244 99.3789,189.911 100.5,191.5C 100.646,193.942 99.813,194.609 98,193.5C 97,194.167 96,194.833 95,195.5C 92.8834,200.065 91.0501,204.731 89.5,209.5C 92.1778,211.785 95.1778,212.118 98.5,210.5C 102.798,209.8 107.131,209.467 111.5,209.5C 103.683,211.193 95.683,212.526 87.5,213.5C 88.5329,208.37 90.0329,203.37 92,198.5C 98.6096,185.599 107.776,174.933 119.5,166.5 Z"/></g>
<g><path style="opacity:1" fill="#979797" d="M 88.5,179.5 C 86.2796,184.272 83.7796,188.938 81,193.5C 80.6012,193.272 80.4346,192.938 80.5,192.5C 82.4176,187.657 85.0843,183.323 88.5,179.5 Z"/></g>
<g><path style="opacity:1" fill="#f2f2f3" d="M 124.5,188.5 C 131.508,188.334 138.508,188.5 145.5,189C 147.664,189.914 149.664,191.081 151.5,192.5C 143.272,196.62 135.272,201.286 127.5,206.5C 126.066,204.78 125.233,202.78 125,200.5C 124.501,196.514 124.334,192.514 124.5,188.5 Z"/></g>
<g><path style="opacity:1" fill="#f0f0f0" d="M 338.5,188.5 C 345.833,188.5 353.167,188.5 360.5,188.5C 360.446,194.846 359.112,200.846 356.5,206.5C 349.07,201.734 341.403,197.4 333.5,193.5C 332.479,192.998 332.312,192.332 333,191.5C 335.058,190.771 336.891,189.771 338.5,188.5 Z"/></g>
<g><path style="opacity:0.941" fill="#9c9d9d" d="M 79.5,194.5 C 80.1081,196.684 79.4414,198.684 77.5,200.5C 77.595,198.214 78.2616,196.214 79.5,194.5 Z"/></g>
<g><path style="opacity:1" fill="#0aa2e5" d="M 98.5,210.5 C 95.1778,212.118 92.1778,211.785 89.5,209.5C 91.0501,204.731 92.8834,200.065 95,195.5C 96,194.833 97,194.167 98,193.5C 99.813,194.609 100.646,193.942 100.5,191.5C 101.24,188.391 102.906,185.725 105.5,183.5C 106.651,182.269 107.817,182.269 109,183.5C 109.719,191.484 110.219,199.318 110.5,207C 106.11,207.259 102.11,208.426 98.5,210.5 Z"/></g>
<g><path style="opacity:1" fill="#96c3d2" d="M 364.5,166.5 C 367.268,168.087 369.935,169.92 372.5,172C 375.631,176.133 379.131,179.966 383,183.5C 389.972,192.44 394.472,202.44 396.5,213.5C 395.5,213.5 394.5,213.5 393.5,213.5C 393.808,208.629 392.975,203.963 391,199.5C 390.292,198.619 389.458,197.953 388.5,197.5C 387.392,192.927 385.059,189.261 381.5,186.5C 379.423,183.946 377.756,181.446 376.5,179C 375.167,178.667 373.833,178.333 372.5,178C 373.167,177.667 373.833,177.333 374.5,177C 372.91,174.207 370.577,172.373 367.5,171.5C 366.241,170.021 365.241,168.354 364.5,166.5 Z"/></g>
<g><path style="opacity:1" fill="#40a0cb" d="M 388.5,197.5 C 389.458,197.953 390.292,198.619 391,199.5C 392.975,203.963 393.808,208.629 393.5,213.5C 390.505,213.706 387.838,213.04 385.5,211.5C 384.5,210.833 383.5,210.167 382.5,209.5C 385.518,209.704 388.518,210.037 391.5,210.5C 391.394,205.957 390.394,201.624 388.5,197.5 Z"/></g>
<g><path style="opacity:1" fill="#04a2e7" d="M 381.5,186.5 C 385.059,189.261 387.392,192.927 388.5,197.5C 390.394,201.624 391.394,205.957 391.5,210.5C 388.518,210.037 385.518,209.704 382.5,209.5C 381.167,209.5 379.833,209.5 378.5,209.5C 377.269,208.282 376.102,206.949 375,205.5C 374.333,197.833 374.333,190.167 375,182.5C 377.255,183.761 379.422,185.094 381.5,186.5 Z"/></g>
<g><path style="opacity:0.773" fill="#606060" d="M 405.5,196.5 C 408.61,203.734 409.944,211.4 409.5,219.5C 408.486,212.118 406.82,204.785 404.5,197.5C 405.167,197.5 405.5,197.167 405.5,196.5 Z"/></g>
<g><path style="opacity:0.816" fill="#989898" d="M 77.5,200.5 C 77.678,204.122 77.0114,207.456 75.5,210.5C 75.5488,206.922 76.2154,203.589 77.5,200.5 Z"/></g>
<g><path style="opacity:1" fill="#9ac6d5" d="M 372.5,183.5 C 373.487,190.89 373.154,198.39 371.5,206C 371.645,206.772 371.978,207.439 372.5,208C 374.518,208.505 376.518,209.005 378.5,209.5C 379.833,209.5 381.167,209.5 382.5,209.5C 383.5,210.167 384.5,210.833 385.5,211.5C 379.989,211.224 374.656,210.224 369.5,208.5C 371.26,200.268 372.26,191.935 372.5,183.5 Z"/></g>
<g><path style="opacity:1" fill="#75b7cf" d="M 364.5,230.5 C 360.058,227.527 355.892,224.193 352,220.5C 350.584,219.427 349.25,219.427 348,220.5C 347.293,218.919 346.46,217.419 345.5,216C 338.961,212.231 332.294,208.731 325.5,205.5C 325.916,208.583 326.583,211.583 327.5,214.5C 328.037,219.186 328.704,223.853 329.5,228.5C 328.833,227.5 328.167,226.5 327.5,225.5C 326.922,218.366 325.589,211.366 323.5,204.5C 323.833,203.833 324.167,203.167 324.5,202.5C 337.51,209.334 349.843,217.168 361.5,226C 363.141,227.129 364.141,228.629 364.5,230.5 Z"/></g>
<g><path style="opacity:1" fill="#36a7dc" d="M 155.5,224.5 C 153.471,242.643 156.138,259.976 163.5,276.5C 163.5,277.5 163.5,278.5 163.5,279.5C 162.221,278.032 160.554,277.365 158.5,277.5C 158.5,275.833 158.5,274.167 158.5,272.5C 157.5,272.5 156.5,272.5 155.5,272.5C 156.112,268.837 156.279,265.17 156,261.5C 155.311,265.783 153.811,266.283 151.5,263C 152.718,261.562 153.385,259.895 153.5,258C 153.739,246.684 153.405,235.35 152.5,224C 154.393,221.083 154.893,217.916 154,214.5C 151.56,215.274 150.227,216.94 150,219.5C 149.365,218.034 148.531,216.7 147.5,215.5C 148.936,214.066 150.602,212.9 152.5,212C 151.437,210.812 150.103,210.312 148.5,210.5C 150.89,208.98 153.557,207.98 156.5,207.5C 156.093,213.161 155.76,218.828 155.5,224.5 Z"/></g>
<g><path style="opacity:1" fill="#6fb1cd" d="M 155.5,224.5 C 155.76,218.828 156.093,213.161 156.5,207.5C 153.557,207.98 150.89,208.98 148.5,210.5C 143.323,213.014 137.989,216.18 132.5,220C 130.484,223.518 127.484,225.851 123.5,227C 115.783,236.325 108.283,245.825 101,255.5C 98.3166,261.169 96.1499,267.002 94.5,273C 95.0219,273.561 95.3552,274.228 95.5,275C 92.9894,281.24 91.6561,287.74 91.5,294.5C 96.518,294.613 101.518,294.947 106.5,295.5C 107.544,302.994 107.544,310.327 106.5,317.5C 106.133,311.828 105.633,306.161 105,300.5C 103.784,297.382 101.45,295.716 98,295.5C 94.6474,297.214 91.1474,298.047 87.5,298C 89.875,283.002 94.0417,268.502 100,254.5C 114.457,230.544 134.624,213.211 160.5,202.5C 158.668,209.918 157.001,217.251 155.5,224.5 Z"/></g>
<g><path style="opacity:0.914" fill="#858585" d="M 74.5,212.5 C 74.982,216.57 75.982,220.57 77.5,224.5C 83.1967,225.829 88.8634,225.829 94.5,224.5C 94.5,224.833 94.5,225.167 94.5,225.5C 88.6292,226.809 82.6292,226.809 76.5,225.5C 75.2485,223.999 74.2485,222.332 73.5,220.5C 74.3928,217.916 74.7261,215.249 74.5,212.5 Z"/></g>
<g><path style="opacity:1" fill="#111111" d="M 190.5,221.5 C 193.961,221.146 196.461,222.479 198,225.5C 198.667,230.833 198.667,236.167 198,241.5C 193.041,247.097 189.041,246.43 186,239.5C 185.333,235.5 185.333,231.5 186,227.5C 186.599,224.746 188.099,222.746 190.5,221.5 Z"/></g>
<g><path style="opacity:1" fill="#0c0c0c" d="M 289.5,221.5 C 294.118,220.949 296.951,222.949 298,227.5C 298.826,232.589 298.492,237.589 297,242.5C 292.927,246.619 289.26,246.285 286,241.5C 285.333,236.167 285.333,230.833 286,225.5C 286.69,223.65 287.856,222.316 289.5,221.5 Z"/></g>
<g><path style="opacity:0.678" fill="#b2b1b1" d="M 103.5,227.5 C 101.012,225.612 98.0122,224.945 94.5,225.5C 94.5,225.167 94.5,224.833 94.5,224.5C 98.8786,224.078 103.212,223.411 107.5,222.5C 107.236,224.498 105.903,226.165 103.5,227.5 Z"/></g>
<g><path style="opacity:0.502" fill="#757575" d="M 377.5,222.5 C 385.811,223.832 394.144,225.165 402.5,226.5C 405.313,225.929 407.646,224.596 409.5,222.5C 408.488,225.853 406.154,227.52 402.5,227.5C 395.103,226.859 387.77,225.859 380.5,224.5C 379.5,223.833 378.5,223.167 377.5,222.5 Z"/></g>
<g><path style="opacity:0.859" fill="#848484" d="M 102.5,228.5 C 102.938,228.435 103.272,228.601 103.5,229C 99.9699,234.018 96.3032,238.851 92.5,243.5C 92.3505,242.448 92.5172,241.448 93,240.5C 95.9454,236.249 99.112,232.249 102.5,228.5 Z"/></g>
<g><path style="opacity:1" fill="#04a2e6" d="M 148.5,210.5 C 150.103,210.312 151.437,210.812 152.5,212C 150.602,212.9 148.936,214.066 147.5,215.5C 148.531,216.7 149.365,218.034 150,219.5C 150.227,216.94 151.56,215.274 154,214.5C 154.893,217.916 154.393,221.083 152.5,224C 153.405,235.35 153.739,246.684 153.5,258C 153.385,259.895 152.718,261.562 151.5,263C 153.811,266.283 155.311,265.783 156,261.5C 156.279,265.17 156.112,268.837 155.5,272.5C 156.5,272.5 157.5,272.5 158.5,272.5C 158.5,274.167 158.5,275.833 158.5,277.5C 160.554,277.365 162.221,278.032 163.5,279.5C 170.004,286.876 174.671,295.376 177.5,305C 177.472,306.07 177.139,306.903 176.5,307.5C 168.668,306.791 161.001,305.291 153.5,303C 151.167,302.333 148.833,302.333 146.5,303C 154.311,305.786 162.311,307.953 170.5,309.5C 170.611,310.117 170.944,310.617 171.5,311C 173.473,311.495 175.473,311.662 177.5,311.5C 177.822,313.722 177.155,315.556 175.5,317C 177.037,318.11 177.703,319.61 177.5,321.5C 173.167,321.5 168.833,321.5 164.5,321.5C 159.146,321.529 153.813,321.195 148.5,320.5C 146.36,320.556 144.694,321.223 143.5,322.5C 154.76,325.012 166.426,326.678 178.5,327.5C 180.26,330.212 180.927,333.212 180.5,336.5C 179.5,336.5 178.5,336.5 177.5,336.5C 177.5,337.5 177.5,338.5 177.5,339.5C 166.879,341.285 156.212,342.952 145.5,344.5C 147.167,344.833 148.833,345.167 150.5,345.5C 161.458,343.837 172.458,342.504 183.5,341.5C 183.833,341.5 184.167,341.5 184.5,341.5C 182.839,345.082 184.173,346.748 188.5,346.5C 191.009,351.359 192.675,356.526 193.5,362C 190.479,362.849 189.979,364.349 192,366.5C 192.689,365.643 193.522,364.977 194.5,364.5C 195.633,367.289 197.3,369.622 199.5,371.5C 200.492,371.328 201.158,371.662 201.5,372.5C 200.957,372.56 200.624,372.893 200.5,373.5C 201.098,374.795 201.598,376.128 202,377.5C 204.802,380.146 207.968,382.146 211.5,383.5C 212.058,384.79 213.058,385.623 214.5,386C 218.179,386.835 221.845,387.668 225.5,388.5C 226.244,389.991 226.91,391.491 227.5,393C 229.5,393.667 231.5,394.333 233.5,395C 228.798,395.828 224.131,395.662 219.5,394.5C 222.342,393.996 223.675,392.329 223.5,389.5C 220.091,389.249 216.758,389.583 213.5,390.5C 211.829,392.51 211.162,394.843 211.5,397.5C 207.537,399.36 204.204,398.527 201.5,395C 200.207,394.51 198.873,394.343 197.5,394.5C 197.5,393.5 197.5,392.5 197.5,391.5C 200.926,391.65 201.259,390.484 198.5,388C 192.907,386.284 192.24,387.617 196.5,392C 192.247,392.2 188.08,392.7 184,393.5C 183.667,393.167 183.333,392.833 183,392.5C 181.957,394.701 181.123,397.034 180.5,399.5C 179.268,400.145 177.935,400.311 176.5,400C 177.993,401.156 177.826,401.99 176,402.5C 174.862,402.011 173.695,401.678 172.5,401.5C 171.078,401.291 169.745,400.791 168.5,400C 162.202,393.028 155.535,386.528 148.5,380.5C 145.146,378.137 142.48,375.137 140.5,371.5C 138.677,370.253 136.677,369.586 134.5,369.5C 132.801,369.34 131.134,369.506 129.5,370C 129.43,371.624 128.93,373.457 128,375.5C 126.612,376.554 125.112,376.72 123.5,376C 121.925,372.427 120.092,368.927 118,365.5C 117.342,361.555 116.175,357.888 114.5,354.5C 113.539,352.735 113.205,350.735 113.5,348.5C 114.219,346.683 115.219,346.016 116.5,346.5C 116,345.5 115.5,344.5 115,343.5C 114.333,344.833 113.667,344.833 113,343.5C 112.087,339.347 111.253,335.18 110.5,331C 110.559,329.564 110.892,328.231 111.5,327C 110.335,324.268 109.002,321.768 107.5,319.5C 107.167,318.833 106.833,318.167 106.5,317.5C 107.544,310.327 107.544,302.994 106.5,295.5C 101.518,294.947 96.518,294.613 91.5,294.5C 91.6561,287.74 92.9894,281.24 95.5,275C 95.3552,274.228 95.0219,273.561 94.5,273C 96.1499,267.002 98.3166,261.169 101,255.5C 108.283,245.825 115.783,236.325 123.5,227C 127.484,225.851 130.484,223.518 132.5,220C 137.989,216.18 143.323,213.014 148.5,210.5 Z"/></g>
<g><path style="opacity:1" fill="#85c8e2" d="M 329.5,229.5 C 329.396,236.817 329.396,243.984 329.5,251C 328.901,252.622 328.234,254.122 327.5,255.5C 327.5,252.833 327.5,250.167 327.5,247.5C 328.167,241.5 328.833,235.5 329.5,229.5 Z"/></g>
<g><path style="opacity:1" fill="#969696" d="M 92.5,243.5 C 91.5903,246.992 89.9236,249.992 87.5,252.5C 88.4097,249.008 90.0764,246.008 92.5,243.5 Z"/></g>
<g><path style="opacity:1" fill="#345865" d="M 327.5,225.5 C 328.167,226.5 328.833,227.5 329.5,228.5C 329.5,228.833 329.5,229.167 329.5,229.5C 328.833,235.5 328.167,241.5 327.5,247.5C 327.5,240.167 327.5,232.833 327.5,225.5 Z"/></g>
<g><path style="opacity:0.596" fill="#898989" d="M 377.5,222.5 C 378.5,223.167 379.5,223.833 380.5,224.5C 384.418,230.933 388.585,237.267 393,243.5C 397.362,252.229 401.195,261.229 404.5,270.5C 404.672,271.492 404.338,272.158 403.5,272.5C 397.915,253.824 388.581,237.324 375.5,223C 376.094,222.536 376.761,222.369 377.5,222.5 Z"/></g>
<g><path style="opacity:1" fill="#69b3d1" d="M 365.5,231.5 C 373.455,238.096 379.455,246.096 383.5,255.5C 382.21,257.14 380.543,257.64 378.5,257C 379.576,255.274 379.743,253.441 379,251.5C 376.626,244.59 372.46,238.923 366.5,234.5C 365.873,233.583 365.539,232.583 365.5,231.5 Z"/></g>
<g><path style="opacity:0.829" fill="#818081" d="M 86.5,253.5 C 87.0431,253.56 87.3764,253.893 87.5,254.5C 85.6372,259.945 83.4705,265.278 81,270.5C 79.4225,279.023 77.5892,287.356 75.5,295.5C 76.0484,280.638 79.7151,266.638 86.5,253.5 Z"/></g>
<g><path style="opacity:1" fill="#34a1d2" d="M 327.5,214.5 C 328.117,214.611 328.617,214.944 329,215.5C 330.536,227.791 330.87,240.124 330,252.5C 329.961,256.581 329.128,260.415 327.5,264C 329.705,269.024 328.538,272.858 324,275.5C 323.187,277.436 322.687,279.436 322.5,281.5C 321.041,281.433 319.708,281.766 318.5,282.5C 320.883,278.229 322.883,273.729 324.5,269C 324.43,268.235 324.097,267.735 323.5,267.5C 324.715,263.368 326.049,259.368 327.5,255.5C 328.234,254.122 328.901,252.622 329.5,251C 329.396,243.984 329.396,236.817 329.5,229.5C 329.5,229.167 329.5,228.833 329.5,228.5C 328.704,223.853 328.037,219.186 327.5,214.5 Z"/></g>
<g><path style="opacity:1" fill="#72b0cc" d="M 163.5,276.5 C 170.902,285.299 176.235,295.299 179.5,306.5C 179.253,307.713 178.586,308.38 177.5,308.5C 176.833,308.5 176.5,308.167 176.5,307.5C 177.139,306.903 177.472,306.07 177.5,305C 174.671,295.376 170.004,286.876 163.5,279.5C 163.5,278.5 163.5,277.5 163.5,276.5 Z"/></g>
<g><path style="opacity:1" fill="#565656" d="M 404.5,270.5 C 406.891,279.91 408.557,289.577 409.5,299.5C 407.933,298.319 407.099,296.653 407,294.5C 406.367,287.037 405.2,279.704 403.5,272.5C 404.338,272.158 404.672,271.492 404.5,270.5 Z"/></g>
<g><path style="opacity:1" fill="#8dbdce" d="M 383.5,255.5 C 390.333,268.838 394.667,283.005 396.5,298C 392.966,298.864 389.966,298.031 387.5,295.5C 389.5,295.5 391.5,295.5 393.5,295.5C 393.665,292.15 393.498,288.817 393,285.5C 392.696,283.559 391.863,281.893 390.5,280.5C 390.833,279.833 391.167,279.167 391.5,278.5C 388.669,270.816 386.002,263.149 383.5,255.5 Z"/></g>
<g><path style="opacity:1" fill="#7ab8d1" d="M 323.5,267.5 C 324.097,267.735 324.43,268.235 324.5,269C 322.883,273.729 320.883,278.229 318.5,282.5C 312.329,289.84 307.996,298.173 305.5,307.5C 304.596,306.791 304.263,305.791 304.5,304.5C 311.073,292.354 317.407,280.021 323.5,267.5 Z"/></g>
<g><path style="opacity:1" fill="#e3e3e3" d="M 238.5,301.5 C 250.007,301.266 251.007,303.933 241.5,309.5C 239.35,307.851 237.35,306.018 235.5,304C 236.571,303.148 237.571,302.315 238.5,301.5 Z"/></g>
<g><path style="opacity:1" fill="#021a31" d="M 176.5,307.5 C 176.5,308.167 176.833,308.5 177.5,308.5C 177.5,309.167 177.5,309.833 177.5,310.5C 175.097,310.552 172.764,310.219 170.5,309.5C 162.311,307.953 154.311,305.786 146.5,303C 148.833,302.333 151.167,302.333 153.5,303C 161.001,305.291 168.668,306.791 176.5,307.5 Z"/></g>
<g><path style="opacity:1" fill="#05192d" d="M 305.5,310.5 C 304.892,309.2 304.225,307.867 303.5,306.5C 303.543,305.584 303.876,304.917 304.5,304.5C 304.263,305.791 304.596,306.791 305.5,307.5C 313.116,305.847 320.782,304.347 328.5,303C 330.833,302.333 333.167,302.333 335.5,303C 325.564,305.817 315.564,308.317 305.5,310.5 Z"/></g>
<g><path style="opacity:0.757" fill="#a2a2a2" d="M 74.5,302.5 C 74.5751,305.206 74.9084,307.873 75.5,310.5C 73.4162,308.007 73.0829,305.34 74.5,302.5 Z"/></g>
<g><path style="opacity:1" fill="#7ab3ca" d="M 387.5,295.5 C 384.495,295.253 381.995,296.253 380,298.5C 378.359,311.881 376.359,325.214 374,338.5C 373.61,341.104 372.776,343.438 371.5,345.5C 371.974,338.837 372.474,332.171 373,325.5C 375.016,323.166 375.516,320.666 374.5,318C 376.388,311.664 377.721,305.164 378.5,298.5C 378.919,297.328 379.585,296.328 380.5,295.5C 382.973,294.203 385.307,294.203 387.5,295.5 Z"/></g>
<g><path style="opacity:0.58" fill="#767676" d="M 75.5,310.5 C 77.9973,311.743 80.664,312.41 83.5,312.5C 87.1093,311.529 90.7759,310.863 94.5,310.5C 94.3752,316.586 95.0419,322.586 96.5,328.5C 96.4805,329.726 96.1471,330.726 95.5,331.5C 94.4885,325.575 93.6551,319.575 93,313.5C 89.0281,312.819 85.0281,313.153 81,314.5C 78.4945,314.006 76.6612,312.672 75.5,310.5 Z"/></g>
<g><path style="opacity:0.251" fill="#7a7a7a" d="M 409.5,299.5 C 410.56,303.372 410.393,307.372 409,311.5C 407.147,313.592 404.814,314.592 402,314.5C 398.472,313.736 394.972,313.236 391.5,313C 390.781,317.651 389.781,322.151 388.5,326.5C 388.447,320.804 388.78,315.138 389.5,309.5C 392.016,309.755 394.35,310.589 396.5,312C 399.833,312.667 403.167,312.667 406.5,312C 408.696,308.199 409.696,304.033 409.5,299.5 Z"/></g>
<g><path style="opacity:1" fill="#4295bd" d="M 170.5,309.5 C 172.764,310.219 175.097,310.552 177.5,310.5C 178.15,310.804 178.817,311.137 179.5,311.5C 180.489,315.107 180.823,318.774 180.5,322.5C 174.974,322.821 169.64,322.488 164.5,321.5C 168.833,321.5 173.167,321.5 177.5,321.5C 177.703,319.61 177.037,318.11 175.5,317C 177.155,315.556 177.822,313.722 177.5,311.5C 175.473,311.662 173.473,311.495 171.5,311C 170.944,310.617 170.611,310.117 170.5,309.5 Z"/></g>
<g><path style="opacity:1" fill="#03213d" d="M 164.5,321.5 C 169.64,322.488 174.974,322.821 180.5,322.5C 179.89,323.391 179.557,324.391 179.5,325.5C 167.517,324.22 155.517,323.22 143.5,322.5C 144.694,321.223 146.36,320.556 148.5,320.5C 153.813,321.195 159.146,321.529 164.5,321.5 Z"/></g>
<g><path style="opacity:1" fill="#808080" d="M 289.5,314.5 C 290.209,313.596 291.209,313.263 292.5,313.5C 292.058,317.154 291.724,320.821 291.5,324.5C 286.167,324.5 280.833,324.5 275.5,324.5C 280.305,323.513 285.305,323.179 290.5,323.5C 290.344,320.934 290.678,318.434 291.5,316C 291.164,314.97 290.497,314.47 289.5,314.5 Z"/></g>
<g><path style="opacity:1" fill="#021020" d="M 303.5,311.5 C 303.5,315.5 303.5,319.5 303.5,323.5C 315.851,323.168 328.185,323.501 340.5,324.5C 327.828,325.268 315.161,325.934 302.5,326.5C 302.389,325.883 302.056,325.383 301.5,325C 302.142,320.399 302.809,315.899 303.5,311.5 Z"/></g>
<g><path style="opacity:1" fill="#339ac9" d="M 143.5,322.5 C 155.517,323.22 167.517,324.22 179.5,325.5C 181.226,329.428 182.892,333.595 184.5,338C 183.956,338.717 183.289,339.217 182.5,339.5C 180.833,339.5 179.167,339.5 177.5,339.5C 177.5,338.5 177.5,337.5 177.5,336.5C 178.5,336.5 179.5,336.5 180.5,336.5C 180.927,333.212 180.26,330.212 178.5,327.5C 166.426,326.678 154.76,325.012 143.5,322.5 Z"/></g>
<g><path style="opacity:1" fill="#79bcd6" d="M 107.5,319.5 C 109.002,321.768 110.335,324.268 111.5,327C 110.892,328.231 110.559,329.564 110.5,331C 111.253,335.18 112.087,339.347 113,343.5C 113.667,344.833 114.333,344.833 115,343.5C 115.5,344.5 116,345.5 116.5,346.5C 115.219,346.016 114.219,346.683 113.5,348.5C 112.4,346.723 111.566,344.723 111,342.5C 109.438,334.874 108.272,327.207 107.5,319.5 Z"/></g>
<g><path style="opacity:0.678" fill="#7c7c7c" d="M 388.5,326.5 C 387.602,339.994 384.935,352.994 380.5,365.5C 383.175,352.4 385.842,339.4 388.5,326.5 Z"/></g>
<g><path style="opacity:1" fill="#021e39" d="M 177.5,339.5 C 179.167,339.5 180.833,339.5 182.5,339.5C 182.833,340.167 183.167,340.833 183.5,341.5C 172.458,342.504 161.458,343.837 150.5,345.5C 148.833,345.167 147.167,344.833 145.5,344.5C 156.212,342.952 166.879,341.285 177.5,339.5 Z"/></g>
<g><path style="opacity:1" fill="#021932" d="M 302.5,339.5 C 314.603,342.073 326.603,345.073 338.5,348.5C 336.579,349.641 334.579,349.808 332.5,349C 322.449,346.154 312.449,343.654 302.5,341.5C 303.506,341.062 303.506,340.396 302.5,339.5 Z"/></g>
<g><path style="opacity:1" fill="#b3b3b3" d="M 265.5,343.5 C 269.601,344.366 273.601,344.366 277.5,343.5C 273.527,345.961 269.527,345.961 265.5,343.5 Z"/></g>
<g><path style="opacity:0.671" fill="#767777" d="M 96.5,334.5 C 98.8764,338.405 99.8764,342.739 99.5,347.5C 98.0566,343.385 97.0566,339.052 96.5,334.5 Z"/></g>
<g><path style="opacity:1" fill="#7dc5d0" d="M 184.5,341.5 C 186.587,342.585 187.92,344.251 188.5,346.5C 184.173,346.748 182.839,345.082 184.5,341.5 Z"/></g>
<g><path style="opacity:1" fill="#f7f7f7" d="M 240.5,345.5 C 246.104,349.235 252.104,352.402 258.5,355C 264.656,357.097 270.99,357.93 277.5,357.5C 276.2,361.318 273.867,364.484 270.5,367C 251.497,379.666 232.497,379.666 213.5,367C 210.6,364.603 208.267,361.77 206.5,358.5C 217.59,357.646 227.924,354.48 237.5,349C 238.71,347.961 239.71,346.794 240.5,345.5 Z"/></g>
<g><path style="opacity:1" fill="#06a2e5" d="M 364.5,230.5 C 365.167,230.5 365.5,230.833 365.5,231.5C 365.539,232.583 365.873,233.583 366.5,234.5C 372.46,238.923 376.626,244.59 379,251.5C 379.743,253.441 379.576,255.274 378.5,257C 380.543,257.64 382.21,257.14 383.5,255.5C 386.002,263.149 388.669,270.816 391.5,278.5C 391.167,279.167 390.833,279.833 390.5,280.5C 391.863,281.893 392.696,283.559 393,285.5C 393.498,288.817 393.665,292.15 393.5,295.5C 391.5,295.5 389.5,295.5 387.5,295.5C 385.307,294.203 382.973,294.203 380.5,295.5C 379.585,296.328 378.919,297.328 378.5,298.5C 377.721,305.164 376.388,311.664 374.5,318C 375.516,320.666 375.016,323.166 373,325.5C 372.474,332.171 371.974,338.837 371.5,345.5C 371.5,345.833 371.5,346.167 371.5,346.5C 370.178,346.33 369.011,346.663 368,347.5C 367.667,351.833 367.333,356.167 367,360.5C 365.667,361.167 364.667,362.167 364,363.5C 363.321,367.878 362.488,372.211 361.5,376.5C 360.828,377.267 359.995,377.934 359,378.5C 356.833,375.667 354.667,372.833 352.5,370C 351.552,369.517 350.552,369.351 349.5,369.5C 344.95,368.002 341.95,369.668 340.5,374.5C 337.263,377.349 334.263,380.349 331.5,383.5C 330.432,382.566 329.099,382.232 327.5,382.5C 327.5,384.167 327.5,385.833 327.5,387.5C 326.448,387.649 325.448,387.483 324.5,387C 325.696,386.346 325.696,385.846 324.5,385.5C 323.719,386.729 323.219,388.062 323,389.5C 322.333,390.833 321.667,390.833 321,389.5C 321.592,393.898 319.759,395.898 315.5,395.5C 315.675,397.621 315.341,399.621 314.5,401.5C 313.127,401.343 311.793,401.51 310.5,402C 308.471,404.188 306.138,406.021 303.5,407.5C 301.835,405.744 300.835,403.577 300.5,401C 299.87,399.69 298.87,398.856 297.5,398.5C 297.937,396.926 298.937,395.759 300.5,395C 296.154,392.9 292.154,393.066 288.5,395.5C 285.02,396.229 281.686,397.229 278.5,398.5C 278.67,399.822 278.337,400.989 277.5,402C 272.324,404.359 266.991,406.192 261.5,407.5C 259.896,407.061 258.396,406.394 257,405.5C 256.5,405.833 256,406.167 255.5,406.5C 261.852,408.621 261.852,410.121 255.5,411C 255.833,411.333 256.167,411.667 256.5,412C 252.697,413.067 249.363,414.9 246.5,417.5C 243.5,417.5 240.5,417.5 237.5,417.5C 234.718,416.067 231.718,414.9 228.5,414C 229.167,413.667 229.833,413.333 230.5,413C 229.167,412.333 229.167,411.667 230.5,411C 229.5,410.5 228.5,410 227.5,409.5C 224.897,410.562 222.23,410.728 219.5,410C 217.842,408.17 215.842,406.836 213.5,406C 212.207,405.51 210.873,405.343 209.5,405.5C 205.205,399.927 199.705,395.927 193,393.5C 190.097,393.911 187.431,394.911 185,396.5C 184.667,395.833 184.333,395.167 184,394.5C 184.664,398.182 184.497,401.848 183.5,405.5C 180.755,407.681 178.421,407.014 176.5,403.5C 174.655,404.395 173.322,403.728 172.5,401.5C 173.695,401.678 174.862,402.011 176,402.5C 177.826,401.99 177.993,401.156 176.5,400C 177.935,400.311 179.268,400.145 180.5,399.5C 181.123,397.034 181.957,394.701 183,392.5C 183.333,392.833 183.667,393.167 184,393.5C 188.08,392.7 192.247,392.2 196.5,392C 192.24,387.617 192.907,386.284 198.5,388C 201.259,390.484 200.926,391.65 197.5,391.5C 197.5,392.5 197.5,393.5 197.5,394.5C 198.873,394.343 200.207,394.51 201.5,395C 204.204,398.527 207.537,399.36 211.5,397.5C 211.162,394.843 211.829,392.51 213.5,390.5C 216.758,389.583 220.091,389.249 223.5,389.5C 223.675,392.329 222.342,393.996 219.5,394.5C 224.131,395.662 228.798,395.828 233.5,395C 231.5,394.333 229.5,393.667 227.5,393C 226.91,391.491 226.244,389.991 225.5,388.5C 221.845,387.668 218.179,386.835 214.5,386C 213.058,385.623 212.058,384.79 211.5,383.5C 216.32,385.249 221.32,386.249 226.5,386.5C 230.251,387.99 234.251,388.99 238.5,389.5C 245.507,388.944 252.507,388.277 259.5,387.5C 259.863,386.817 260.196,386.15 260.5,385.5C 262.515,384.076 264.848,383.41 267.5,383.5C 269.655,383.628 271.655,383.128 273.5,382C 276.648,378.929 279.981,376.096 283.5,373.5C 284.768,374.428 286.101,374.595 287.5,374C 286.542,372.853 286.875,371.853 288.5,371C 287.692,370.692 287.025,370.192 286.5,369.5C 290.745,363.932 292.912,357.599 293,350.5C 296.158,348.136 298.324,345.136 299.5,341.5C 300.5,341.5 301.5,341.5 302.5,341.5C 312.449,343.654 322.449,346.154 332.5,349C 334.579,349.808 336.579,349.641 338.5,348.5C 326.603,345.073 314.603,342.073 302.5,339.5C 301.522,339.189 300.855,338.522 300.5,337.5C 301.681,333.928 302.348,330.262 302.5,326.5C 315.161,325.934 327.828,325.268 340.5,324.5C 328.185,323.501 315.851,323.168 303.5,323.5C 303.5,319.5 303.5,315.5 303.5,311.5C 303.842,310.662 304.508,310.328 305.5,310.5C 315.564,308.317 325.564,305.817 335.5,303C 333.167,302.333 330.833,302.333 328.5,303C 320.782,304.347 313.116,305.847 305.5,307.5C 307.996,298.173 312.329,289.84 318.5,282.5C 319.708,281.766 321.041,281.433 322.5,281.5C 322.687,279.436 323.187,277.436 324,275.5C 328.538,272.858 329.705,269.024 327.5,264C 329.128,260.415 329.961,256.581 330,252.5C 330.87,240.124 330.536,227.791 329,215.5C 328.617,214.944 328.117,214.611 327.5,214.5C 326.583,211.583 325.916,208.583 325.5,205.5C 332.294,208.731 338.961,212.231 345.5,216C 346.46,217.419 347.293,218.919 348,220.5C 349.25,219.427 350.584,219.427 352,220.5C 355.892,224.193 360.058,227.527 364.5,230.5 Z"/></g>
<g><path style="opacity:1" fill="#66b0cf" d="M 188.5,346.5 C 189.794,347.29 190.961,348.29 192,349.5C 193.254,353.77 194.254,358.104 195,362.5C 196.793,365.394 198.293,368.394 199.5,371.5C 197.3,369.622 195.633,367.289 194.5,364.5C 193.522,364.977 192.689,365.643 192,366.5C 189.979,364.349 190.479,362.849 193.5,362C 192.675,356.526 191.009,351.359 188.5,346.5 Z"/></g>
<g><path style="opacity:1" fill="#6eb4d5" d="M 371.5,346.5 C 369.451,356.65 366.784,366.65 363.5,376.5C 362.833,376.5 362.167,376.5 361.5,376.5C 362.488,372.211 363.321,367.878 364,363.5C 364.667,362.167 365.667,361.167 367,360.5C 367.333,356.167 367.667,351.833 368,347.5C 369.011,346.663 370.178,346.33 371.5,346.5 Z"/></g>
<g><path style="opacity:0.286" fill="#737373" d="M 99.5,347.5 C 101.876,351.405 102.876,355.739 102.5,360.5C 100.763,356.458 99.7633,352.124 99.5,347.5 Z"/></g>
<g><path style="opacity:0.516" fill="#969696" d="M 102.5,360.5 C 104.606,364.491 105.939,368.824 106.5,373.5C 104.411,369.499 103.078,365.165 102.5,360.5 Z"/></g>
<g><path style="opacity:1" fill="#72b6cf" d="M 299.5,341.5 C 298.324,345.136 296.158,348.136 293,350.5C 292.912,357.599 290.745,363.932 286.5,369.5C 287.025,370.192 287.692,370.692 288.5,371C 286.875,371.853 286.542,372.853 287.5,374C 286.101,374.595 284.768,374.428 283.5,373.5C 279.981,376.096 276.648,378.929 273.5,382C 271.655,383.128 269.655,383.628 267.5,383.5C 272.113,381.187 276.447,378.354 280.5,375C 284.301,370.561 287.467,365.727 290,360.5C 290.243,355.526 291.41,350.859 293.5,346.5C 294.885,344.117 296.885,342.45 299.5,341.5 Z"/></g>
<g><path style="opacity:1" fill="#7fc2da" d="M 349.5,369.5 C 345.779,369.891 342.779,371.558 340.5,374.5C 341.95,369.668 344.95,368.002 349.5,369.5 Z"/></g>
<g><path style="opacity:0.702" fill="#707070" d="M 380.5,365.5 C 379.309,371.528 377.309,377.195 374.5,382.5C 375.326,376.353 377.326,370.687 380.5,365.5 Z"/></g>
<g><path style="opacity:0.678" fill="#818181" d="M 106.5,373.5 C 108.293,375.426 109.293,377.759 109.5,380.5C 107.707,378.574 106.707,376.241 106.5,373.5 Z"/></g>
<g><path style="opacity:1" fill="#60a9c8" d="M 114.5,354.5 C 116.175,357.888 117.342,361.555 118,365.5C 120.092,368.927 121.925,372.427 123.5,376C 125.112,376.72 126.612,376.554 128,375.5C 128.93,373.457 129.43,371.624 129.5,370C 131.134,369.506 132.801,369.34 134.5,369.5C 131.423,372.569 128.756,375.903 126.5,379.5C 124.696,378.284 123.029,377.284 121.5,376.5C 117.493,369.791 115.16,362.457 114.5,354.5 Z"/></g>
<g><path style="opacity:1" fill="#94c4d7" d="M 340.5,374.5 C 339.928,376.255 339.094,377.922 338,379.5C 334.296,383.036 330.796,386.702 327.5,390.5C 326.957,390.44 326.624,390.107 326.5,389.5C 327.823,387.093 329.49,385.093 331.5,383.5C 334.263,380.349 337.263,377.349 340.5,374.5 Z"/></g>
<g><path style="opacity:1" fill="#c9d7dd" d="M 121.5,376.5 C 123.029,377.284 124.696,378.284 126.5,379.5C 126.092,380.643 125.425,381.643 124.5,382.5C 122.447,381.061 121.447,379.061 121.5,376.5 Z"/></g>
<g><path style="opacity:1" fill="#b1c8d0" d="M 349.5,369.5 C 350.552,369.351 351.552,369.517 352.5,370C 354.667,372.833 356.833,375.667 359,378.5C 359.995,377.934 360.828,377.267 361.5,376.5C 362.167,376.5 362.833,376.5 363.5,376.5C 363.166,379.168 361.833,381.168 359.5,382.5C 356.4,377.956 353.067,373.623 349.5,369.5 Z"/></g>
<g><path style="opacity:0.933" fill="#868686" d="M 109.5,380.5 C 111.213,381.635 111.88,383.302 111.5,385.5C 110.463,384.07 109.796,382.403 109.5,380.5 Z"/></g>
<g><path style="opacity:1" fill="#5aa9c9" d="M 201.5,372.5 C 204.576,375.552 207.91,378.386 211.5,381C 216.588,382.89 221.588,384.723 226.5,386.5C 221.32,386.249 216.32,385.249 211.5,383.5C 207.968,382.146 204.802,380.146 202,377.5C 201.598,376.128 201.098,374.795 200.5,373.5C 200.624,372.893 200.957,372.56 201.5,372.5 Z"/></g>
<g><path style="opacity:1" fill="#7db7ce" d="M 148.5,380.5 C 155.535,386.528 162.202,393.028 168.5,400C 169.745,400.791 171.078,401.291 172.5,401.5C 173.322,403.728 174.655,404.395 176.5,403.5C 178.421,407.014 180.755,407.681 183.5,405.5C 183.108,407.179 182.608,408.846 182,410.5C 171.519,404.692 162.185,397.359 154,388.5C 151.92,385.935 150.087,383.268 148.5,380.5 Z"/></g>
<g><path style="opacity:0.9" fill="#7a7a7a" d="M 111.5,385.5 C 114.201,388.235 115.868,391.569 116.5,395.5C 114.341,392.516 112.675,389.183 111.5,385.5 Z"/></g>
<g><path style="opacity:1" fill="#53a6c7" d="M 260.5,385.5 C 260.196,386.15 259.863,386.817 259.5,387.5C 252.507,388.277 245.507,388.944 238.5,389.5C 234.251,388.99 230.251,387.99 226.5,386.5C 237.846,387.322 249.179,386.989 260.5,385.5 Z"/></g>
<g><path style="opacity:1" fill="#969697" d="M 152.5,404.5 C 151.761,404.631 151.094,404.464 150.5,404C 147.057,399.769 143.39,395.769 139.5,392C 137.975,390.991 136.308,390.491 134.5,390.5C 134.908,389.357 135.575,388.357 136.5,387.5C 142.348,392.741 147.681,398.408 152.5,404.5 Z"/></g>
<g><path style="opacity:1" fill="#66b5d2" d="M 297.5,398.5 C 295.155,395.925 292.155,394.925 288.5,395.5C 292.154,393.066 296.154,392.9 300.5,395C 298.937,395.759 297.937,396.926 297.5,398.5 Z"/></g>
<g><path style="opacity:0.51" fill="#8d8d8d" d="M 374.5,382.5 C 372.26,389.476 368.593,395.642 363.5,401C 361.167,401.667 358.833,401.667 356.5,401C 353.112,398.214 350.446,394.881 348.5,391C 347.5,390.333 346.5,390.333 345.5,391C 337.011,400.578 327.677,409.244 317.5,417C 312.313,420.889 306.646,423.723 300.5,425.5C 305.902,422.624 311.236,419.457 316.5,416C 321.543,411.288 326.877,406.955 332.5,403C 337.58,398.591 341.914,393.591 345.5,388C 349.149,388.98 351.649,391.48 353,395.5C 357.594,402.128 362.094,402.128 366.5,395.5C 368.438,390.639 371.104,386.305 374.5,382.5 Z"/></g>
<g><path style="opacity:1" fill="#72b6d0" d="M 209.5,405.5 C 204.372,403.096 199.705,399.929 195.5,396C 193.5,395.333 191.5,395.333 189.5,396C 186.565,398.67 184.565,401.837 183.5,405.5C 184.497,401.848 184.664,398.182 184,394.5C 184.333,395.167 184.667,395.833 185,396.5C 187.431,394.911 190.097,393.911 193,393.5C 199.705,395.927 205.205,399.927 209.5,405.5 Z"/></g>
<g><path style="opacity:1" fill="#67b3d6" d="M 331.5,383.5 C 329.49,385.093 327.823,387.093 326.5,389.5C 326.624,390.107 326.957,390.44 327.5,390.5C 323.466,394.536 319.132,398.202 314.5,401.5C 315.341,399.621 315.675,397.621 315.5,395.5C 319.759,395.898 321.592,393.898 321,389.5C 321.667,390.833 322.333,390.833 323,389.5C 323.219,388.062 323.719,386.729 324.5,385.5C 325.696,385.846 325.696,386.346 324.5,387C 325.448,387.483 326.448,387.649 327.5,387.5C 327.5,385.833 327.5,384.167 327.5,382.5C 329.099,382.232 330.432,382.566 331.5,383.5 Z"/></g>
<g><path style="opacity:0.82" fill="#888888" d="M 134.5,390.5 C 133.25,394.408 130.917,397.408 127.5,399.5C 129.482,396.19 131.815,393.19 134.5,390.5 Z"/></g>
<g><path style="opacity:0.635" fill="#7d7d7d" d="M 118.5,398.5 C 121.43,399.299 124.43,399.632 127.5,399.5C 126.848,400.725 125.681,401.392 124,401.5C 121.345,401.876 119.512,400.876 118.5,398.5 Z"/></g>
<g><path style="opacity:1" fill="#908f8e" d="M 152.5,404.5 C 157.043,406.372 160.71,409.372 163.5,413.5C 159.203,411.196 155.536,408.196 152.5,404.5 Z"/></g>
<g><path style="opacity:1" fill="#6ab3ce" d="M 209.5,405.5 C 210.873,405.343 212.207,405.51 213.5,406C 215.842,406.836 217.842,408.17 219.5,410C 222.23,410.728 224.897,410.562 227.5,409.5C 228.5,410 229.5,410.5 230.5,411C 229.167,411.667 229.167,412.333 230.5,413C 229.833,413.333 229.167,413.667 228.5,414C 231.718,414.9 234.718,416.067 237.5,417.5C 227.148,415.614 217.814,411.614 209.5,405.5 Z"/></g>
<g><path style="opacity:1" fill="#76adc3" d="M 297.5,398.5 C 298.87,398.856 299.87,399.69 300.5,401C 300.835,403.577 301.835,405.744 303.5,407.5C 306.138,406.021 308.471,404.188 310.5,402C 311.793,401.51 313.127,401.343 314.5,401.5C 311.255,405.135 307.255,407.802 302.5,409.5C 300.254,406.096 298.588,402.429 297.5,398.5 Z"/></g>
<g><path style="opacity:1" fill="#4fa8d4" d="M 288.5,395.5 C 281.936,402.129 274.269,407.296 265.5,411C 259.505,414.276 253.171,416.443 246.5,417.5C 249.363,414.9 252.697,413.067 256.5,412C 256.167,411.667 255.833,411.333 255.5,411C 261.852,410.121 261.852,408.621 255.5,406.5C 256,406.167 256.5,405.833 257,405.5C 258.396,406.394 259.896,407.061 261.5,407.5C 266.991,406.192 272.324,404.359 277.5,402C 278.337,400.989 278.67,399.822 278.5,398.5C 281.686,397.229 285.02,396.229 288.5,395.5 Z"/></g>
<g><path style="opacity:1" fill="#bec1be" d="M 163.5,413.5 C 165.027,413.427 166.027,414.094 166.5,415.5C 164.973,415.573 163.973,414.906 163.5,413.5 Z"/></g>
<g><path style="opacity:0.547" fill="#b7b7b8" d="M 294.5,424.5 C 293.504,424.586 292.671,424.252 292,423.5C 291.544,419.597 289.71,416.597 286.5,414.5C 282.685,417.01 278.685,419.01 274.5,420.5C 278.762,417.026 283.429,414.026 288.5,411.5C 290.505,415.857 292.505,420.19 294.5,424.5 Z"/></g>
<g><path style="opacity:0.325" fill="#c1c0c1" d="M 207.5,419.5 C 203.808,418.04 200.141,416.374 196.5,414.5C 195.817,414.863 195.15,415.196 194.5,415.5C 194.709,414.078 195.209,412.745 196,411.5C 199.846,414.324 203.68,416.99 207.5,419.5 Z"/></g>
<g><path style="opacity:0.808" fill="#a7a6a6" d="M 194.5,415.5 C 194.482,418.921 193.149,421.588 190.5,423.5C 191.541,420.609 192.874,417.942 194.5,415.5 Z"/></g>
<g><path style="opacity:1" fill="#99bfcc" d="M 237.5,417.5 C 240.5,417.5 243.5,417.5 246.5,417.5C 245.833,418.167 245.167,418.833 244.5,419.5C 241.772,419.829 239.438,419.163 237.5,417.5 Z"/></g>
<g><path style="opacity:0.898" fill="#b1b1b1" d="M 166.5,415.5 C 170.439,417.446 174.106,419.779 177.5,422.5C 173.024,421.343 169.358,419.01 166.5,415.5 Z"/></g>
<g><path style="opacity:1" fill="#969696" d="M 207.5,419.5 C 211.511,420.044 214.844,421.711 217.5,424.5C 213.701,423.579 210.368,421.912 207.5,419.5 Z"/></g>
<g><path style="opacity:0.49" fill="#9e9e9e" d="M 274.5,420.5 C 269.26,423.952 263.594,426.618 257.5,428.5C 257.5,427.833 257.5,427.167 257.5,426.5C 263.274,424.779 268.94,422.779 274.5,420.5 Z"/></g>
<g><path style="opacity:0.757" fill="#cacaca" d="M 177.5,422.5 C 180.285,423.306 183.119,423.972 186,424.5C 187.592,424.395 189.092,424.061 190.5,423.5C 189.486,424.765 187.986,425.431 186,425.5C 182.642,425.727 179.809,424.727 177.5,422.5 Z"/></g>
<g><path style="opacity:0.804" fill="#7a7a79" d="M 217.5,424.5 C 220.659,425.331 223.659,426.331 226.5,427.5C 222.919,427.862 219.919,426.862 217.5,424.5 Z"/></g>
<g><path style="opacity:0.016" fill="#8a8a8a" d="M 294.5,424.5 C 296.216,424.629 297.883,424.962 299.5,425.5C 297.662,426.678 295.995,426.345 294.5,424.5 Z"/></g>
<g><path style="opacity:0.976" fill="#c6c7c8" d="M 228.5,428.5 C 228.735,427.903 229.235,427.57 230,427.5C 236.94,430.121 244.107,430.954 251.5,430C 252.818,427.647 254.485,427.147 256.5,428.5C 254.75,430.398 252.584,431.731 250,432.5C 242.677,432.015 235.511,430.681 228.5,428.5 Z"/></g>
</svg>
